<?xml version="1.0" standalone="no"?>
<!DOCTYPE svg PUBLIC "-//W3C//DTD SVG 1.1//EN" "http://www.w3.org/Graphics/SVG/1.1/DTD/svg11.dtd" >
<svg xmlns="http://www.w3.org/2000/svg" xmlns:xlink="http://www.w3.org/1999/xlink" version="1.1">
<metadata>
Created by FontForge 20170924 at Sun Feb 26 15:47:53 1995
 By www-data
URW Software, Copyright 1995 by URW
</metadata>
<defs>
<font id="CaslonGraD" horiz-adv-x="1024" >
  <font-face 
    font-family="CaslonGraD"
    font-weight="400"
    font-stretch="normal"
    units-per-em="2048"
    panose-1="0 0 0 0 0 0 0 0 0 0"
    ascent="1556"
    descent="-492"
    x-height="1024"
    cap-height="1365"
    bbox="-445 -541 2349 1915"
    underline-thickness="200"
    underline-position="-392"
    unicode-range="U+0020-F002"
  />
<missing-glyph horiz-adv-x="512" 
d="M51 0v1365h410v-1365h-410zM410 51v1263h-308v-1263h308z" />
    <glyph glyph-name=".notdef" horiz-adv-x="512" 
d="M51 0v1365h410v-1365h-410zM410 51v1263h-308v-1263h308z" />
    <glyph glyph-name="glyph1" horiz-adv-x="0" 
 />
    <glyph glyph-name="glyph2" horiz-adv-x="512" 
 />
    <glyph glyph-name="space" unicode=" " horiz-adv-x="512" 
 />
    <glyph glyph-name="exclam" unicode="!" horiz-adv-x="594" 
d="M346 453h-20q-5 80 -26 149q-22 65 -75 165q-24 48 -75 151q-54 110 -54 184q0 172 230 331q98 -73 140 -121q87 -99 87 -198q0 -93 -85 -283q-62 -139 -86 -204q-29 -79 -36 -174zM326 367q80 0 137 -58q58 -57 58 -139t-58 -139q-57 -58 -139 -58t-139 58
q-58 58 -58 139q0 83 58 139q59 58 141 58z" />
    <glyph glyph-name="quotedbl" unicode="&#x22;" horiz-adv-x="1019" 
d="M252 818h-29l-182 547h394zM795 818h-30l-181 547h394z" />
    <glyph glyph-name="numbersign" unicode="#" horiz-adv-x="1148" 
d="M718 840l92 525h41l-92 -525h389l-8 -41h-389l-41 -232h390l-8 -41h-389l-93 -526h-41l93 526h-232l-93 -526h-41l93 526h-389l7 41h389l41 232h-389l7 41h390l92 525h41l-92 -525h232zM710 799h-232l-41 -232h232z" />
    <glyph glyph-name="dollar" unicode="$" horiz-adv-x="1229" 
d="M623 -27v-273h-27v273q-166 2 -304 54q-235 88 -235 270q0 62 44 106q46 46 115 46q102 0 159 -100q23 -41 33 -90q1 -8 11 -80q11 -81 55.5 -126t121.5 -52v506l-104 35q-162 53 -261 131q-128 102 -128 275q0 158 114 277q149 156 379 166v275h27v-274q25 1 36 1
q178 0 324 -72q67 -33 111 -95q33 -46 33 -99q0 -48 -29 -87q-42 -55 -116 -55q-69 0 -127 49q-46 39 -72 124q-36 119 -59 151q-19 25 -41 37q-18 10 -60 18v-456l190 -62q183 -60 267 -151q91 -99 91 -243q0 -146 -94 -266q-154 -197 -454 -213zM623 0q93 4 147 33
q47 25 76 71q38 59 38 128q0 122 -111 197q-56 39 -150 70v-499zM596 1365q-95 -5 -140 -43q-66 -55 -66 -160q0 -91 57 -154q46 -52 149 -91v448z" />
    <glyph glyph-name="percent" unicode="%" horiz-adv-x="1058" 
d="M989 1495h28l-938 -1556h-28l835 1391q-107 -84 -198 -84q-70 0 -158 41q68 -87 68 -200q0 -109 -60 -189q-39 -53 -98 -84t-120 -31q-62 0 -121 31t-98 84q-60 80 -60 189q0 110 60 190q39 53 98 84t120 31q101 0 186 -78q77 -33 169 -33q80 0 147 29q68 30 102 83z
M316 1365q-42 0 -64 -76q-26 -89 -26 -202q0 -110 26 -200q22 -77 65 -77t65 77q26 89 26 198q0 120 -26 204q-23 76 -66 76zM739 582q59 0 117 -31t97 -84q60 -80 60 -190q0 -109 -60 -189q-39 -53 -97.5 -84t-120.5 -31t-120.5 31t-97.5 84q-60 80 -60 189q0 112 60 190
q87 115 222 115zM731 555q-42 0 -63 -76q-26 -90 -26 -202q0 -110 26 -200q21 -77 65 -77q43 0 65 77q25 89 25 198q0 119 -25 204q-23 76 -67 76z" />
    <glyph glyph-name="ampersand" unicode="&#x26;" horiz-adv-x="1785" 
d="M1751 294l20 -8q-56 -106 -129 -185q-116 -128 -242 -128q-150 0 -282 98q-71 53 -155 144q-71 -101 -131 -147q-124 -95 -289 -95q-97 0 -189 38.5t-161 107.5q-145 144 -145 359q0 230 181 417q95 97 234 169q9 76 29 119q48 104 165 163q92 46 196 46q155 0 244 -95
q74 -81 74 -193q0 -154 -159 -358l167 -202q74 225 112 319q46 112 108 156q53 38 116 38q87 0 138 -66q42 -54 42 -132q0 -69 -35 -118q-41 -56 -105 -56q-61 0 -127 69q-38 39 -68 39q-45 0 -87 -88q-27 -55 -75 -179q77 -97 171 -175q146 -122 258 -122q78 0 124 65z
M998 764q66 111 66 263q0 155 -54 250q-50 88 -134 88q-53 0 -85 -40q-27 -34 -27 -81q0 -96 106 -289q54 -97 128 -191zM462 1039q-56 -54 -82.5 -124t-26.5 -168q0 -189 112 -354q60 -87 146 -135t184 -48q73 0 143 33q-96 83 -309 381q-80 114 -118 209.5t-49 205.5z" />
    <glyph glyph-name="quotesingle" unicode="'" horiz-adv-x="491" 
d="M267 818h-43l-183 547h409z" />
    <glyph glyph-name="parenleft" unicode="(" horiz-adv-x="667" 
d="M654 1502v-21q-85 -2 -136 -38q-84 -58 -116 -207q-23 -110 -23 -320v-596q0 -210 23 -321q56 -246 252 -245v-20q-135 5 -215 29q-171 55 -282 216q-71 104 -92 207q-24 104 -24 257v350q2 256 70 385q101 203 295 282q92 36 248 42z" />
    <glyph glyph-name="parenright" unicode=")" horiz-adv-x="667" 
d="M14 -266v20q85 3 136 38q84 59 116 207q23 111 23 321v596q0 210 -23 320q-56 247 -252 245v21q136 -5 215 -29q171 -55 282 -217q71 -103 92 -206q24 -105 24 -257v-350q-2 -256 -70 -385q-101 -203 -295 -283q-92 -36 -248 -41z" />
    <glyph glyph-name="asterisk" unicode="*" horiz-adv-x="733" 
d="M397 983q82 -38 147 -73q75 -41 75 -104q0 -39 -25 -67q-27 -30 -71 -30q-52 0 -78 41q-28 45 -39 147q-3 36 -9 86zM335 983q-13 -118 -27 -180q-22 -91 -104 -91q-45 0 -72 32q-23 29 -23 65q0 72 148 138q37 17 78 36zM316 1041q-145 -30 -197 -30q-54 0 -85 40
q-21 27 -21 62q0 34 23 60q30 34 71 34q59 0 151 -102q27 -31 58 -64zM366 1077q-23 41 -56 104q-39 78 -39 112q0 38 25 66q30 33 72 33q37 0 65 -27q30 -27 30 -65q0 -49 -44 -129q-5 -9 -29 -51q-5 -8 -24 -43zM416 1041q30 33 95 99q64 63 111 63q42 0 72 -30
q27 -27 27 -64q0 -47 -33 -75q-28 -24 -83 -24q-38 0 -105 14q-36 8 -84 17z" />
    <glyph glyph-name="plus" unicode="+" horiz-adv-x="1133" 
d="M546 662h-526v41h526v526h41v-526h525v-41h-525v-525h-41v525z" />
    <glyph glyph-name="comma" unicode="," horiz-adv-x="475" 
d="M183 -310l-14 14q73 93 73 168q0 33 -11 55q-12 26 -58 50q-75 41 -96 65q-36 43 -36 107q0 73 51 129q58 63 145 63q88 0 144 -65q54 -64 54 -158q0 -129 -100 -269q-66 -92 -152 -159z" />
    <glyph glyph-name="hyphen" unicode="-" horiz-adv-x="537" 
d="M537 597v-157h-537v157h537z" />
    <glyph glyph-name="period" unicode="." horiz-adv-x="478" 
d="M240 367q80 0 137 -58q58 -57 58 -139t-58 -139q-57 -58 -139 -58t-139 58q-58 58 -58 139q0 83 58 139q59 58 141 58z" />
    <glyph glyph-name="slash" unicode="/" horiz-adv-x="860" 
d="M818 1365h55l-832 -1365h-55z" />
    <glyph glyph-name="zero" unicode="0" horiz-adv-x="1229" 
d="M621 1392q160 0 320 -131q245 -202 245 -579q0 -277 -137 -463q-78 -108 -194 -174q-124 -72 -240 -72q-167 0 -327 131q-245 201 -245 576q0 285 137 466q80 108 194 175q122 71 247 71zM612 1365q-74 0 -110 -168t-36 -517q0 -286 33 -500q13 -85 50 -141
q26 -39 66 -39q75 0 111.5 164.5t36.5 503.5q0 323 -33 517q-30 180 -118 180z" />
    <glyph glyph-name="one" unicode="1" horiz-adv-x="1229" 
d="M814 1410v-1059q0 -157 10 -212q16 -78 81 -101q36 -13 100 -18v-20h-771v20q116 7 155 58q27 37 34 118q2 28 2 141v516q-1 108 -14 144q-19 56 -106 66q-29 3 -92 3v21q145 54 324 150q145 78 277 173z" />
    <glyph glyph-name="two" unicode="2" horiz-adv-x="1229" 
d="M181 1001h-21q113 391 476 391q215 0 341 -134q105 -111 105 -260q0 -199 -188 -334q-69 -49 -158 -87q-22 -10 -120 -47q-183 -71 -244 -109q-93 -60 -156 -138h502q191 0 257 23q58 19 92 56q15 17 36 55h20q-58 -175 -70 -219q-25 -84 -65 -249h-20q-3 21 -14 32
q-17 16 -73 16q-12 0 -72 2q-46 1 -67 1h-637q6 157 57 249q32 56 111 128q22 20 112 97q96 82 158 155q116 137 116 277q0 98 -56 163q-68 79 -186 79q-96 0 -164 -52q-40 -30 -72 -95z" />
    <glyph glyph-name="three" unicode="3" horiz-adv-x="1229" 
d="M473 776v20q118 28 162 74q67 70 67 169q0 73 -45 124q-57 65 -156 65q-76 0 -131 -38q-31 -22 -67 -76l-20 5q38 115 121 183q109 90 253 90q162 0 270 -88q98 -80 98 -208q0 -85 -47 -150q-21 -30 -73 -66q106 -60 160 -152.5t54 -212.5q0 -229 -180 -389
q-174 -153 -415 -153q-166 0 -292 68q-67 36 -105 97.5t-38 134.5q0 79 42 132q51 63 139 63q75 0 121 -50t46 -115q0 -36 -13 -99q-11 -50 -11 -88q0 -49 36 -82q40 -37 103 -37q94 0 147 78q66 99 66 255q0 200 -101 323q-55 67 -115 98q-26 13 -76 25z" />
    <glyph glyph-name="four" unicode="4" horiz-adv-x="1229" 
d="M708 1392h268v-845h81q81 0 115 16q25 11 59 43l18 -8q-68 -104 -101 -208h-172v-136q1 -109 26 -150q47 -82 198 -84v-20h-833v20q119 4 163 29q44 26 60 77q14 44 14 128v136h-561q-27 65 -74 140q417 425 739 862zM604 1104q-121 -151 -261 -310.5t-228 -246.5h489
v557z" />
    <glyph glyph-name="five" unicode="5" horiz-adv-x="1229" 
d="M981 1115h-690l-24 -165q89 16 204 16q273 0 431 -97q103 -63 164 -173q60 -108 60 -235q0 -188 -145 -329q-85 -82 -187.5 -120.5t-239.5 -38.5q-166 0 -293 53q-179 74 -179 245q0 77 44 123q49 51 130 51q89 0 135 -66q33 -47 33 -112q0 -18 -4 -77q-2 -22 -2 -41
q0 -69 27 -103q34 -46 127 -46q123 0 188 97q62 93 62 224q0 139 -78 216q-116 115 -360 115q-120 0 -236 -37q38 118 77 372q37 254 42 378h620q83 1 125 18q32 13 63 50l20 -6q-71 -123 -114 -312z" />
    <glyph glyph-name="six" unicode="6" horiz-adv-x="1229" 
d="M905 1444l13 -17q-280 -142 -410 -548q75 24 146 24q213 0 366 -130q152 -128 152 -321q0 -197 -147 -333q-74 -68 -177.5 -107t-211.5 -39q-234 0 -399 161q-174 170 -174 434q0 260 172 469q136 165 393 296q136 69 277 111zM631 876q-94 0 -138 -88
q-29 -56 -41 -136.5t-12 -211.5q0 -180 23 -269q44 -171 169 -171q48 0 88 26t59 69q49 112 49 343q0 246 -51 351q-43 87 -146 87z" />
    <glyph glyph-name="seven" unicode="7" horiz-adv-x="1229" 
d="M255 1433h20q12 -34 39 -48q39 -19 119 -20h689q-2 -83 -27 -158q-30 -85 -112 -231q-130 -232 -211 -412q-57 -126 -90.5 -253t-33.5 -219q0 -30 5 -92h-447q11 161 52 270q66 174 275 375q95 89 276 234q119 96 208 203h-474q-158 0 -198 -6q-109 -16 -161 -64
q-18 -16 -43 -50h-20q40 99 80 239q38 135 54 232z" />
    <glyph glyph-name="eight" unicode="8" horiz-adv-x="1229" 
d="M863 804q104 -56 162 -109q127 -116 127 -277q0 -201 -189 -334q-157 -111 -359 -111q-206 0 -363 101q-79 50 -123 130q-41 74 -41 158q0 204 250 341q-176 114 -176 284q0 184 150 299q138 106 350 106q164 0 283 -82q134 -93 134 -221q0 -113 -87 -199
q-35 -36 -118 -86zM837 815q88 124 88 256q0 129 -67 211q-69 83 -184 83q-93 0 -151 -59q-57 -59 -57 -150q0 -136 165 -233q20 -12 129 -67q22 -11 77 -41zM350 687q-71 -123 -71 -274q0 -165 87 -292q83 -121 240 -121q103 0 165 55q77 68 77 188q0 111 -82 195
q-61 62 -209 138q-133 68 -207 111z" />
    <glyph glyph-name="nine" unicode="9" horiz-adv-x="1229" 
d="M386 -48l-11 17q171 110 267 253q78 119 127 315q-50 -43 -90 -59q-65 -26 -151 -26q-191 0 -336 112q-152 119 -152 316q0 225 179 374q166 138 382 138q159 0 305 -81q147 -80 220 -231q57 -119 57 -264q0 -360 -339 -624q-214 -167 -458 -240zM597 1365
q-65 0 -117 -59q-84 -94 -84 -376q0 -208 43 -324q20 -55 62.5 -87.5t94.5 -32.5q200 0 200 423q0 195 -42 321q-46 135 -157 135z" />
    <glyph glyph-name="colon" unicode=":" horiz-adv-x="532" 
d="M295 991q80 0 137 -58q58 -57 58 -139t-58 -139q-57 -58 -139 -58t-139 58q-58 57 -58 139q0 83 58 139q59 58 141 58zM295 367q80 0 137 -58q58 -57 58 -139t-58 -139q-57 -58 -139 -58t-139 58q-58 58 -58 139q0 83 58 139q59 58 141 58z" />
    <glyph glyph-name="semicolon" unicode=";" horiz-adv-x="533" 
d="M294 991q80 0 137 -58q58 -57 58 -139t-58 -139q-57 -58 -139 -58t-139 58q-58 57 -58 139q0 83 58 139q59 58 141 58zM241 -311l-14 14q74 93 74 168q0 33 -11 55q-13 26 -59 51q-75 40 -96 65q-36 43 -36 107q0 73 51 129q58 63 146 63q87 0 143 -66q55 -63 55 -158
q0 -128 -100 -269q-66 -92 -153 -159z" />
    <glyph glyph-name="less" unicode="&#x3c;" 
d="M949 1329v-167l-424 -259l424 -294v-444l-875 607v21z" />
    <glyph glyph-name="equal" unicode="=" horiz-adv-x="1133" 
d="M20 840h1092v-41h-1092v41zM20 567h1092v-41h-1092v41z" />
    <glyph glyph-name="greater" unicode="&#x3e;" 
d="M75 165v167l424 259l-424 294v444l875 -607v-21z" />
    <glyph glyph-name="question" unicode="?" horiz-adv-x="1168" 
d="M620 440q-18 -23 -33 -23q-24 0 -36 29q-10 23 -10 46q0 49 57 148q62 104 87 190q37 122 37 223q0 135 -71 224q-27 35 -71 55.5t-91 20.5q-58 0 -96 -27t-38 -79q0 -46 49 -140q32 -62 32 -118q0 -75 -46 -125q-54 -58 -143 -58q-84 0 -134 61q-45 55 -45 132
q0 118 92 220q78 88 199 134q106 40 228 40q198 0 370 -87q84 -43 130.5 -108.5t46.5 -142.5q0 -142 -140 -243q-52 -38 -215 -119q-106 -52 -159 -98q-52 -45 -52 -94q0 -27 14 -43q8 -9 38 -18zM603 367q79 0 136 -58q58 -57 58 -139t-58 -139q-57 -58 -139 -58t-139 58
q-58 58 -58 139q0 83 58 139q59 58 142 58z" />
    <glyph glyph-name="at" unicode="@" horiz-adv-x="1698" 
d="M1265 1040l-91 -483q-14 -74 -14 -109q0 -95 66 -95q52 0 92 39q68 66 112 196q47 137 47 276q0 222 -154 359q-146 129 -375 129q-325 0 -511 -245q-79 -103 -122 -240t-43 -282q0 -256 136 -404q150 -164 397 -164q88 0 213 27v-44q-133 -27 -237 -27q-156 0 -299.5 51
t-245.5 142q-188 170 -188 448q0 167 73 318.5t206 260.5q116 95 277.5 147.5t334.5 52.5q169 0 313 -49t236 -137q164 -158 164 -388q0 -237 -169 -386q-136 -120 -313 -120q-194 0 -214 179q-39 -79 -88 -125q-58 -55 -167 -55q-127 0 -190 69q-63 67 -63 189
q0 195 111 340q53 70 132.5 110t165.5 40q99 0 140 -67q16 -26 27 -76l25 123h216zM892 1020q-53 0 -99 -59.5t-78 -169.5q-41 -143 -41 -304q0 -132 76 -132q62 0 119 69q53 64 87 206q30 120 30 229q0 64 -16 109q-18 52 -78 52z" />
    <glyph glyph-name="A" unicode="A" horiz-adv-x="1625" 
d="M854 523h-413q-52 -140 -52 -248q0 -124 67 -195q53 -55 136 -60v-20h-633v20q135 19 260 164q114 136 195 349l207 545q-32 62 -80 108q87 42 197 142q82 77 151 160q56 -153 106 -275l264 -637q175 -408 210 -441q55 -80 124 -104q27 -8 73 -11v-20h-827v20
q146 6 146 114q0 80 -86 283zM847 547l-210 508l-189 -508h399z" />
    <glyph glyph-name="B" unicode="B" horiz-adv-x="1448" 
d="M836 757q255 -30 360 -79q212 -97 212 -292q0 -73 -34 -140.5t-94 -113.5q-173 -132 -500 -132h-766v20q116 7 154 58q28 37 34 118q3 29 3 155v663q0 156 -10 212q-16 78 -80 101q-37 13 -101 18v20h537q251 0 384 -20q195 -30 296 -119q86 -76 86 -181
q0 -82 -50 -144.5t-144 -97.5q-100 -36 -287 -46zM608 764h54q97 0 144 18q63 24 97 120q21 59 21 150q0 163 -67 231q-34 36 -86 48q-41 10 -114 10h-49v-577zM608 740v-498q0 -125 18 -168q23 -50 109 -50q146 0 201 115q42 86 42 243q0 205 -72 285q-43 47 -107 63
q-43 10 -127 10h-64z" />
    <glyph glyph-name="C" unicode="C" horiz-adv-x="1369" 
d="M1244 1376l32 -545h-21q-64 207 -189 362q-139 172 -289 172q-68 0 -124.5 -40t-88.5 -111q-86 -191 -86 -539q0 -188 28.5 -319.5t89.5 -224.5q49 -74 135 -111q45 -20 96 -20q152 0 296 216q100 150 151 349h20l-18 -585h-21q-3 42 -44 42q-20 0 -97 -14l-49 -9
q-142 -27 -251 -27q-147 0 -287.5 51t-243.5 142q-109 96 -170 227q-65 140 -65 295q0 227 133 407q121 164 315 242q139 56 291 56q118 0 276 -37q78 -19 110 -19q38 0 50 40h21z" />
    <glyph glyph-name="D" unicode="D" horiz-adv-x="1559" 
d="M205 351v663q0 157 -10 212q-16 78 -80 101q-37 13 -101 18v20h712q380 0 591 -205q195 -191 195 -484q0 -308 -219 -500q-96 -84 -223 -130t-264 -46h-792v20q116 7 154 58q28 37 34 118q3 28 3 155zM608 1341v-1044q0 -134 8 -175q19 -98 144 -98q194 0 262 182
q60 162 60 480q0 244 -36 377q-50 188 -165 242q-75 36 -217 36h-56z" />
    <glyph glyph-name="E" unicode="E" horiz-adv-x="1415" 
d="M608 1341v-630q153 10 256 92q97 82 113 209h20v-631h-20q-28 132 -130 224q-63 55 -143 73q-31 7 -96 11v-485q0 -106 25 -141q27 -39 95 -39q194 0 384 165q177 153 262 393h21l-93 -582h-1288v20q116 7 154 58q28 37 34 118q3 28 3 155v663q0 157 -10 212
q-16 78 -80 101q-37 13 -101 18v20h1207l83 -470h-21q-67 168 -209 300q-165 146 -408 146h-58z" />
    <glyph glyph-name="F" unicode="F" horiz-adv-x="1282" 
d="M608 1341v-653q313 16 367 299h20v-624h-20q-31 127 -127 212q-111 92 -240 92v-318q1 -157 17 -208q10 -34 38.5 -63t63.5 -41q45 -15 129 -17v-20h-842v20q116 7 154 58q28 37 34 118q3 28 3 155v663q0 157 -10 212q-16 78 -80 101q-37 13 -101 18v20h1183l86 -508h-21
q-72 199 -196 315q-186 169 -399 169h-59z" />
    <glyph glyph-name="G" unicode="G" horiz-adv-x="1486" 
d="M1250 1377l23 -534h-20q-60 211 -156 345q-125 177 -278 177q-67 0 -125.5 -39t-95.5 -109q-120 -230 -120 -615q0 -316 84 -477q65 -125 217 -125q116 0 151 78q29 66 29 198v146q-1 94 -20 127q-24 46 -74 65q-22 8 -71 16v20h706v-20q-49 -4 -71 -14q-48 -24 -68 -89
q-13 -37 -13 -163v-364h-20q-20 65 -69 65q-25 0 -98 -23q-220 -69 -413 -69q-291 0 -499 216q-201 210 -201 486q0 214 125 399q117 175 314 258q143 61 306 61q115 0 319 -43q45 -10 73 -10q37 0 45 37h20z" />
    <glyph glyph-name="H" unicode="H" horiz-adv-x="1658" 
d="M608 733h443v338q0 93 -5.5 135.5t-22.5 71.5q-34 56 -122 67v20h744v-20q-116 -7 -154 -57q-28 -38 -34 -119q-3 -28 -3 -155v-663q0 -157 10 -212q16 -78 81 -101q36 -13 100 -18v-20h-744v20q88 11 122 67q22 40 26 113q2 40 2 94v415h-443v-415q0 -88 5 -133
q10 -79 57 -111q29 -21 88 -30v-20h-744v20q116 7 154 58q28 37 34 118q3 28 3 155v663q0 157 -10 212q-16 78 -80 101q-37 13 -101 18v20h744v-20q-88 -11 -122 -67q-22 -40 -26 -113q-2 -36 -2 -94v-338z" />
    <glyph glyph-name="I" unicode="I" horiz-adv-x="812" 
d="M205 351v663q0 156 -10 212q-16 78 -80 101q-37 13 -101 18v20h785v-20q-116 -7 -154 -57q-27 -38 -34 -119q-3 -29 -3 -155v-663q0 -156 10 -212q16 -78 80 -101q37 -13 101 -18v-20h-785v20q116 7 154 58q28 37 34 118q3 29 3 155z" />
    <glyph glyph-name="J" unicode="J" horiz-adv-x="1170" 
d="M992 1014v-510q0 -133 -6.5 -186.5t-27.5 -94.5q-65 -128 -243 -199q-127 -51 -264 -51q-199 0 -333 95q-60 42 -96 109.5t-36 138.5q0 81 53 137q54 58 143 58q81 0 129 -52q45 -50 45 -126q0 -31 -13 -112q-12 -73 -12 -107q0 -54 39 -86q33 -28 84 -28q97 0 123 94
q12 45 12 262v658q0 157 -10 212q-16 78 -80 101q-37 13 -101 18v20h785v-20q-116 -7 -154 -57q-28 -38 -34 -119q-3 -28 -3 -155z" />
    <glyph glyph-name="K" unicode="K" horiz-adv-x="1615" 
d="M1034 0l-426 691v-340q0 -157 10 -212q16 -78 80 -101q37 -13 101 -18v-20h-785v20q116 7 154 58q28 37 34 118q3 29 3 155v663q0 156 -10 212q-16 78 -80 101q-37 13 -101 18v20h785v-20q-116 -7 -154 -57q-28 -38 -34 -119q-3 -28 -3 -155v-308q83 86 213 238
q84 98 119 169q40 80 40 153q0 55 -38 79v20h557v-20q-169 -35 -350 -152q-170 -112 -281 -230l293 -439q146 -217 184 -271q150 -221 339 -233v-20h-650z" />
    <glyph glyph-name="L" unicode="L" horiz-adv-x="1373" 
d="M1387 613l-122 -613h-1251v20q116 7 154 58q28 37 34 118q3 28 3 155v663q0 157 -10 212q-16 78 -80 101q-37 13 -101 18v20h785v-20q-116 -7 -154 -57q-27 -38 -34 -119q-3 -29 -3 -155v-758q0 -129 20 -173q27 -59 131 -59q214 0 404 217q128 146 203 372h21z" />
    <glyph glyph-name="M" unicode="M" horiz-adv-x="1992" 
d="M1039 504l341 861h598v-20q-116 -7 -154 -57q-27 -38 -34 -119q-3 -28 -3 -155v-663q0 -157 10 -212q16 -78 81 -101q36 -13 100 -18v-20h-785v20q116 7 154 58q28 37 34 118q3 29 3 155v956l-541 -1375l-540 1345v-697q1 -306 76 -428q48 -80 123 -110q33 -13 106 -22
v-20h-649v20q174 27 250 166q43 82 58 209q9 80 9 222v430q-1 136 -17 177q-41 113 -252 121v20h693z" />
    <glyph glyph-name="N" unicode="N" horiz-adv-x="1646" 
d="M627 1365l731 -832v306q0 281 -101 418q-41 52 -95 71q-25 9 -80 17v20h605v-20q-85 -10 -127 -35q-177 -122 -175 -558v-820l-1081 1232v-584q2 -312 76 -428q49 -80 122 -110q33 -14 106 -22v-20h-649v20q172 26 250 166q43 81 57 207q11 99 11 224v370q0 94 -6 137
t-24 74q-45 84 -158 126q-55 19 -129 21v20h667z" />
    <glyph glyph-name="O" unicode="O" horiz-adv-x="1584" 
d="M801 1392q262 0 476 -173q260 -210 260 -537q0 -325 -260 -536q-213 -173 -485 -173t-485 173q-259 211 -259 535q0 332 259 538q219 173 494 173zM787 1365q-101 0 -173 -78q-122 -132 -122 -605q0 -340 70 -520q30 -80 102 -127q54 -35 129 -35q107 0 178 78
q122 132 122 597q0 355 -69 528q-32 78 -93 120t-144 42z" />
    <glyph glyph-name="P" unicode="P" horiz-adv-x="1394" 
d="M608 587v-236q0 -157 12 -212q17 -77 91 -101q42 -13 114 -18v-20h-811v20q116 7 154 58q28 37 34 118q3 29 3 155v663q0 156 -10 212q-16 78 -80 101q-37 13 -101 18v20h700q275 0 452 -89q107 -53 163 -153q38 -67 38 -146q0 -132 -103 -231q-105 -101 -294 -137
q-113 -22 -303 -22h-59zM608 611h52q153 0 210 75q67 88 67 297q0 182 -63 274q-58 84 -211 84h-55v-730z" />
    <glyph glyph-name="Q" unicode="Q" horiz-adv-x="1584" 
d="M672 -18q96 -22 262 -89q144 -59 188 -72q93 -28 167 -28q89 0 146 47q39 33 67 108h21q-27 -168 -87 -264q-111 -176 -311 -176q-130 0 -253 85q-83 58 -174 176q-71 91 -119 147q-56 67 -101 67q-34 0 -53 -25q-17 -22 -17 -52q0 -5 4 -32q1 -11 1 -25q0 -52 -28 -79
q-30 -29 -74 -29q-41 0 -67 27q-25 26 -25 63q0 66 69 113q92 62 214 62q38 0 103 -11q-173 49 -298 151q-259 212 -259 536q0 326 259 537q213 173 485 173t485 -173q259 -211 259 -537t-259 -537q-213 -173 -485 -173q-52 0 -120 10zM787 1365q-101 0 -173 -78
q-122 -132 -122 -605q0 -340 69 -520q31 -80 103 -127q54 -35 128 -35q107 0 179 78q121 132 121 597q0 355 -69 528q-32 78 -93 120t-143 42z" />
    <glyph glyph-name="R" unicode="R" horiz-adv-x="1626" 
d="M608 679v-328q0 -157 10 -212q16 -78 81 -101q36 -13 100 -18v-20h-785v20q116 7 154 58q28 37 34 118q3 29 3 155v663q0 156 -10 212q-16 78 -80 101q-37 13 -101 18v20h574q316 0 459 -41q169 -48 255 -150q67 -79 67 -172q0 -102 -85 -179q-90 -82 -271 -107
q101 -18 152 -53q69 -47 144 -191l116 -224q74 -142 120 -180q46 -39 149 -48v-20h-600q-136 326 -228 504q-50 92 -89 126q-52 48 -132 49h-37zM608 703h58q149 0 210 78q63 81 63 241q0 156 -63 241q-34 46 -85 62t-125 16h-58v-638z" />
    <glyph glyph-name="S" unicode="S" horiz-adv-x="1266" 
d="M1087 866h-20q-65 193 -171 324q-143 175 -319 175q-96 0 -154 -51q-64 -55 -64 -146q0 -97 71 -153q78 -61 254 -128l191 -73q155 -60 235 -140q101 -102 101 -248q0 -85 -35.5 -167.5t-98.5 -145.5q-142 -140 -368 -140q-171 0 -444 60q-75 17 -103 17q-55 0 -66 -50
h-21l-20 632h20q69 -228 248 -432q100 -115 184 -158q82 -42 183 -42q100 0 161 54q69 60 69 154q0 101 -81 167q-75 61 -208 112l-200 78q-185 72 -282 164q-90 85 -90 216q0 176 137 305q153 143 395 143q82 0 178 -19q23 -4 134 -29q61 -14 93 -14q39 0 47 46h21z" />
    <glyph glyph-name="T" unicode="T" horiz-adv-x="1384" 
d="M897 1345v-994q0 -156 12 -212q17 -77 91 -101q41 -13 114 -18v-20h-837v20q132 7 175 58q31 37 39 118q3 28 3 155v994q-156 -28 -308 -165q-113 -108 -165 -230h-21l60 477q48 -45 107 -54q52 -7 193 -8h690q119 1 177 9q52 9 103 53l55 -477h-21q-58 149 -205 269
q-134 104 -262 126z" />
    <glyph glyph-name="U" unicode="U" horiz-adv-x="1543" 
d="M1584 1365v-20q-75 -15 -123 -62q-72 -74 -106.5 -235.5t-34.5 -424.5v-157q0 -184 -45 -273q-113 -220 -477 -220q-295 0 -462 114q-96 65 -123 167q-22 79 -22 218v542q0 156 -10 212q-16 78 -80 101q-37 13 -101 18v20h771v-20q-107 -7 -143 -57q-25 -38 -31 -119
q-3 -30 -3 -155v-477q0 -193 15 -267q25 -128 129 -184q83 -44 192 -44q210 0 300 131q41 60 55 139q8 49 8 154v188q2 310 -50 489q-33 111 -99 162q-29 21 -79 40v20h519z" />
    <glyph glyph-name="V" unicode="V" horiz-adv-x="1604" 
d="M979 392l97 214q90 199 112 269q31 102 31 201q0 115 -40 188q-32 59 -103 81v20h569v-20q-82 -35 -135 -79q-151 -136 -317 -486l-405 -849l-529 1087q-82 166 -146 240q-57 62 -154 87v20h784v-20q-70 -12 -96 -42q-25 -31 -25 -80q0 -50 43 -148q19 -44 78 -168z" />
    <glyph glyph-name="W" unicode="W" horiz-adv-x="2308" 
d="M966 431l208 421l-121 283q-54 126 -100 169q-33 32 -99 41v20h741v-20q-110 -17 -110 -119q0 -55 42 -155l255 -609l52 105q161 329 161 542q0 119 -52 180q-32 38 -107 56v20h513v-20q-78 -29 -131 -89q-79 -93 -149 -242l-500 -1083l-384 886l-437 -886l-489 1087
q-71 156 -146 241q-54 60 -154 86v20h751v-20q-83 -33 -83 -102q0 -36 19 -78z" />
    <glyph glyph-name="X" unicode="X" horiz-adv-x="1628" 
d="M943 845l414 -580q97 -135 166 -190q60 -46 139 -55v-20h-809v20q93 21 93 88q0 50 -43 121q-29 49 -94 138l-153 212q-150 -182 -150 -359q0 -98 40 -148q30 -38 107 -52v-20h-659v20q83 24 163 78q159 107 346 328q68 80 138 176l-230 316q-138 192 -168 231.5
t-75 88.5q-46 49 -91 73t-111 34v20h855v-20q-49 -10 -70 -20q-47 -22 -47 -71q0 -46 41 -120q18 -31 121 -182l59 -87q138 182 138 335q0 59 -23 96q-17 26 -59 49v20h551v-20q-94 -23 -175 -73q-151 -94 -295 -273q-52 -64 -119 -154z" />
    <glyph glyph-name="Y" unicode="Y" horiz-adv-x="1551" 
d="M969 642v-291q0 -157 10 -212q16 -78 80 -101q37 -13 101 -18v-20h-785v20q116 7 154 58q28 37 34 118q3 29 3 155v203l-337 559q-77 127 -138 178q-50 41 -132 54v20h794v-20q-109 -13 -109 -100q0 -70 75 -193l234 -387l69 112q138 224 138 396q0 79 -27 125
q-19 33 -62 47v20h521v-20q-75 -21 -126 -54q-86 -58 -222 -231q-102 -130 -172 -246z" />
    <glyph glyph-name="Z" unicode="Z" horiz-adv-x="1366" 
d="M1339 1365l-836 -1341q131 2 243 42q104 39 213.5 126t201.5 205q81 103 128 216h21l-115 -613h-1168l831 1341q-130 -8 -242 -55q-100 -43 -202.5 -122.5t-185.5 -177.5q-64 -77 -111 -174h-20l131 553h1111z" />
    <glyph glyph-name="bracketleft" unicode="[" horiz-adv-x="618" 
d="M48 1502h557v-38h-219v-1692h219v-38h-557v1768z" />
    <glyph glyph-name="backslash" unicode="\" horiz-adv-x="860" 
d="M41 1365l832 -1365h-55l-832 1365h55z" />
    <glyph glyph-name="bracketright" unicode="]" horiz-adv-x="618" 
d="M571 -266h-557v38h219v1692h-219v38h557v-1768z" />
    <glyph glyph-name="asciicircum" unicode="^" 
d="M1094 559h-167l-259 424l-294 -424h-444l607 875h21z" />
    <glyph glyph-name="underscore" unicode="_" 
d="M-3 -192h1031v-200h-1031v200z" />
    <glyph glyph-name="grave" unicode="`" 
d="M639 1143l-20 -20l-100 56q-57 31 -153 60q-85 26 -123 56q-46 36 -46 91q0 50 34 85q33 34 82 34q59 0 106 -52q28 -31 75 -118q20 -36 58 -83z" />
    <glyph glyph-name="a" unicode="a" horiz-adv-x="1240" 
d="M1248 152l13 -16q-69 -57 -121 -90q-114 -74 -222 -74q-164 0 -203 195q-61 -84 -122 -125q-105 -69 -247 -69q-146 0 -229 80q-62 59 -62 144q0 103 92 177q134 108 567 234v107q0 187 -27 231q-32 52 -93 52q-98 0 -140 -81q-20 -40 -37 -179q-12 -90 -59 -141
q-64 -71 -158 -71q-63 0 -103 41q-39 40 -39 103q0 124 175 225q101 58 250 103q178 54 334 54q111 0 180 -57q47 -40 62 -90q17 -54 17 -137v-471q0 -99 14 -130q19 -43 76 -43q33 0 82 28zM714 584q-99 -32 -147 -66q-95 -67 -95 -215q0 -190 119 -190q52 0 88 40
q35 39 35 114v317z" />
    <glyph glyph-name="b" unicode="b" horiz-adv-x="1271" 
d="M525 930q145 121 299 121q178 0 291 -144q108 -137 108 -338q0 -246 -147 -410q-78 -87 -190.5 -136.5t-232.5 -49.5q-101 0 -216 37q-7 2 -100 33q-40 14 -61 14q-69 0 -93 -84h-20v1130q-1 109 -13 158q-34 114 -162 116l-2 21q332 70 539 145v-613zM525 897v-675
q0 -121 28 -171q30 -51 96 -51q192 0 192 491q0 256 -54 374q-41 89 -139 89q-64 0 -123 -57z" />
    <glyph glyph-name="c" unicode="c" horiz-adv-x="1111" 
d="M1059 375l24 -13q-172 -389 -514 -389q-223 0 -366 138q-73 71 -115 178q-40 102 -40 207q0 116 47.5 223t133.5 185q162 147 394 147q192 0 315 -108q114 -101 114 -231q0 -70 -42 -122q-47 -59 -126 -59q-82 0 -131 59q-41 49 -41 119q0 38 20 104q17 56 17 89
q0 51 -33 85q-37 37 -92 37q-95 0 -155 -108q-66 -119 -66 -275q0 -180 89 -289q96 -116 260 -116q173 0 307 139z" />
    <glyph glyph-name="d" unicode="d" horiz-adv-x="1258" 
d="M732 -27v164q-145 -164 -313 -164q-128 0 -226 90q-78 73 -117 191q-29 89 -29 194q0 267 180 444q162 159 377 159q59 0 128 -27v79q0 109 -13 158q-34 114 -162 116l-3 21q311 64 540 145v-1145q1 -147 23 -188q20 -38 67 -51q18 -5 61 -9v-20q-244 -67 -513 -157z
M732 171v738q0 61 -34 90q-29 25 -69 25q-42 0 -78 -27t-57 -74q-65 -143 -65 -417q0 -195 35 -293q40 -111 143 -111q51 0 89 33q14 11 36 36z" />
    <glyph glyph-name="e" unicode="e" horiz-adv-x="1156" 
d="M1107 611h-679q3 -383 341 -383q129 0 220 63q55 39 107 117l19 -9q-60 -156 -135 -247q-146 -179 -392 -179q-238 0 -395 161q-145 149 -145 364q0 255 190 417q157 135 367 135q158 0 284 -79q129 -82 185 -220q22 -54 33 -140zM743 635q0 175 -14 247
q-28 140 -128 140q-116 0 -155 -188q-18 -86 -18 -199h315z" />
    <glyph glyph-name="f" unicode="f" horiz-adv-x="906" 
d="M766 1025l-55 -96h-171v-667q0 -105 8 -148q12 -59 62 -79q35 -13 117 -15v-20h-713v20q101 4 134 45q22 30 27 94q3 24 3 103v667h-119l233 296q144 183 233 251q70 53 183 53q143 0 241 -64q122 -79 122 -198q0 -62 -42 -105q-45 -46 -118 -46q-60 0 -107 34
q-50 36 -63 106q-5 29 -8 96q-4 84 -19 111q-21 37 -59 37q-50 0 -85 -55q-30 -48 -30 -148v-272h226z" />
    <glyph glyph-name="g" unicode="g" horiz-adv-x="1143" 
d="M308 512q-45 -36 -45 -79q0 -67 63 -90q54 -20 180 -20q47 0 136 5q82 5 138 5q160 0 260 -76q116 -87 116 -221q0 -69 -39 -140t-103 -120q-92 -69 -223 -107t-278 -38q-171 0 -306 43q-69 22 -108.5 64.5t-39.5 94.5q0 117 212 191q-90 20 -141 59q-82 61 -82 150
q0 160 237 288q-77 25 -117 61q-79 70 -79 169q0 90 84 167q130 119 382 133q-1 26 -1 39q0 128 48 207q71 116 205 116q77 0 130 -48q54 -49 54 -121q0 -66 -38 -110q-42 -49 -107 -49q-61 0 -121 63q-51 53 -79 53q-69 0 -69 -130v-20h19q133 -1 249 -57q177 -85 177 -220
q0 -54 -31.5 -108.5t-83.5 -91.5q-145 -101 -355 -101q-120 0 -244 39zM548 1024q-124 0 -124 -242q0 -145 34 -217q30 -65 104 -65t101 63q25 59 25 182q0 279 -140 279zM319 17q-61 -41 -61 -115q0 -119 126 -182q104 -52 242 -52q141 0 227 58q81 53 81 137q0 73 -62 112
q-61 37 -162 37q-42 0 -118 -5q-71 -4 -112 -4q-69 0 -161 14z" />
    <glyph glyph-name="h" unicode="h" horiz-adv-x="1339" 
d="M539 847q89 73 150 113q136 91 262 91q113 0 170 -70q34 -42 44 -93q10 -53 10 -124v-542q1 -80 3 -108q9 -88 120 -94v-20h-581v20q64 5 84 49q12 32 12 153v489q0 97 -26 134q-33 45 -88 45q-70 0 -160 -78v-590q0 -122 12 -153q20 -44 84 -49v-20h-622v20
q101 4 134 45q22 30 27 94q3 24 3 103v841q-1 109 -13 158q-34 114 -162 116l-2 21q307 64 539 145v-696z" />
    <glyph glyph-name="i" unicode="i" horiz-adv-x="703" 
d="M2 872l-2 21q331 76 539 158v-789q1 -105 8 -148q10 -59 56 -79q30 -12 86 -15v-20h-662v20q92 4 123 45q20 29 25 94q2 25 2 103v336q-1 109 -13 158q-34 114 -162 116zM336 1551q88 0 151 -64q64 -63 64 -153q0 -91 -64 -154q-63 -64 -153 -64q-91 0 -154 64
q-64 64 -64 153q0 92 64 154q65 64 156 64z" />
    <glyph glyph-name="j" unicode="j" horiz-adv-x="703" 
d="M2 872l-2 21q107 24 272 71q160 46 267 87v-969q0 -190 -45 -266q-64 -107 -196 -167q-116 -52 -254 -52q-140 0 -248 48q-61 28 -95.5 76t-34.5 106q0 62 42 103q45 43 119 43q77 0 124 -55q42 -48 42 -115q0 -19 -2 -42q-1 -23 -1 -39q0 -47 21 -70q25 -28 68 -28
q26 0 49 13.5t32 34.5q17 36 17 149v777q0 109 -13 158q-34 114 -162 116zM336 1551q81 0 141 -60q60 -59 60 -144q0 -84 -60 -144q-59 -60 -144 -60t-144 60q-60 60 -60 144q0 86 60 144q61 60 147 60z" />
    <glyph glyph-name="k" unicode="k" horiz-adv-x="1372" 
d="M539 576l130 134q137 141 137 230q0 41 -31 64v20h440v-20q-98 -20 -231 -84q-112 -56 -208 -128l391 -563q78 -113 130 -161q36 -31 66 -40q11 -4 50 -8v-20h-539l-335 558v-296q0 -104 8 -148q10 -59 56 -79q30 -12 86 -15v-20h-676v20q101 4 134 45q22 29 27 94
q3 24 3 103v841q-1 109 -13 158q-34 114 -162 116l-2 21q343 72 539 145v-967z" />
    <glyph glyph-name="l" unicode="l" horiz-adv-x="703" 
d="M2 1377l-2 21q332 70 539 145v-1281q0 -104 8 -148q10 -59 56 -79q30 -12 86 -15v-20h-662v20q92 4 123 45q20 29 25 94q2 24 2 103v841q-1 109 -13 158q-34 114 -162 116z" />
    <glyph glyph-name="m" unicode="m" horiz-adv-x="1957" 
d="M539 857q94 94 193.5 144t193.5 50q118 0 186 -69q40 -41 56 -125q73 69 126 105q132 89 263 89q104 0 170 -67t66 -223v-539q1 -80 3 -108q9 -88 120 -94v-20h-581v20q64 5 84 49q12 32 12 153v467q0 128 -24 166q-29 46 -88 46q-68 0 -151 -75v-604q1 -122 12 -153
q20 -44 84 -49v-20h-554v20q64 5 84 49q12 31 12 153v467q0 119 -26 162q-30 49 -94 49q-68 0 -147 -74v-604q0 -122 12 -153q20 -44 84 -49v-20h-622v20q101 4 134 45q22 30 27 94q3 24 3 103v336q-1 109 -13 158q-34 114 -162 116l-2 21q238 55 539 158v-194z" />
    <glyph glyph-name="n" unicode="n" horiz-adv-x="1333" 
d="M539 856q66 67 118 107q118 88 256 88q146 0 209 -86q47 -64 47 -214v-529q1 -80 3 -108q9 -88 120 -94v-20h-581v20q65 5 84 49q12 31 12 153v387q0 154 -7 191q-10 54 -47 78q-28 18 -58 18q-73 0 -156 -72v-602q0 -122 12 -153q20 -44 84 -49v-20h-622v20
q101 4 134 45q22 30 27 94q3 24 3 103v336q-1 109 -13 158q-34 114 -162 116l-2 21q263 60 539 158v-195z" />
    <glyph glyph-name="o" unicode="o" horiz-adv-x="1227" 
d="M621 1051q210 0 372 -136q187 -158 187 -403q0 -244 -187 -403q-161 -136 -379 -136t-379 136q-187 159 -187 402q0 249 187 404q165 136 386 136zM611 1024q-69 0 -110 -66q-57 -91 -57 -447q0 -257 33 -390q15 -56 51.5 -88.5t85.5 -32.5q72 0 113 66q57 91 57 439
q0 272 -33 398q-32 121 -140 121z" />
    <glyph glyph-name="p" unicode="p" horiz-adv-x="1260" 
d="M526 917q157 134 307 134q193 0 299 -174q80 -131 80 -313q0 -260 -149 -429q-143 -162 -336 -162q-106 0 -201 73v-187q0 -105 9 -148q13 -60 67 -79q35 -12 101 -15v-20h-730v20q116 7 154 58q28 37 34 118q3 28 3 155v650q0 109 -13 158q-34 114 -162 116l-2 21
q112 25 272 71q157 46 267 87v-134zM526 79q43 -43 100 -43q106 0 154 128q50 135 50 329q0 208 -55 338q-25 61 -76 91q-23 13 -52 13q-46 0 -121 -49v-807z" />
    <glyph glyph-name="q" unicode="q" horiz-adv-x="1254" 
d="M1070 1051h21v-1192q0 -94 6 -134t24 -63q33 -41 134 -45v-20h-703v20q109 4 145 45q24 29 29 94q3 23 3 103v241q-60 -58 -102 -82q-79 -45 -183 -45q-188 0 -299 135q-97 116 -97 296q0 137 52 263.5t147 220.5q165 163 377 163q85 0 278 -51q70 -19 96 -19q44 0 72 70
zM729 135v635q0 168 -23 214q-20 40 -74 40q-69 0 -119 -68q-43 -60 -65 -205q-18 -120 -18 -258q0 -421 177 -421q61 0 122 63z" />
    <glyph glyph-name="r" unicode="r" horiz-adv-x="989" 
d="M525 736q103 315 306 315q78 0 133 -52q53 -52 53 -127q0 -67 -39 -115q-46 -56 -119 -56q-55 0 -97 34q-16 14 -59 71q-31 41 -63 41q-38 0 -63 -43q-26 -45 -31 -94q-7 -68 -7 -192v-256q0 -105 8 -148q12 -59 62 -79q32 -12 94 -15v-20h-690v20q101 4 134 45
q22 29 27 94q3 24 3 103v336q-1 109 -13 158q-34 114 -162 116l-2 21q171 40 273 71q85 26 252 87v-315z" />
    <glyph glyph-name="s" unicode="s" horiz-adv-x="1045" 
d="M891 992l20 -337h-20q-48 116 -130 215q-128 154 -253 154q-54 0 -96 -39q-44 -40 -44 -99q0 -122 193 -185l140 -46q144 -47 222 -113q88 -74 88 -198q0 -84 -38 -158t-104 -120q-133 -93 -313 -93q-161 0 -454 108l-20 409h20q77 -179 178 -298q161 -192 314 -192
q73 0 116 47q35 37 35 100q0 68 -40 108q-44 43 -152 82l-101 37q-178 64 -267 136q-97 79 -97 205q0 154 141 251q123 85 299 85q149 0 363 -59z" />
    <glyph glyph-name="t" unicode="t" horiz-adv-x="783" 
d="M526 1023h258l-51 -96h-207v-590q0 -114 35 -160q42 -57 134 -57q51 0 119 23l10 -17q-70 -51 -126 -83q-126 -70 -240 -70q-123 0 -203 66q-54 46 -72 107q-19 67 -19 169v612h-252q180 79 358 228q149 128 256 284v-416z" />
    <glyph glyph-name="u" unicode="u" horiz-adv-x="1323" 
d="M796 -27v192q-88 -80 -134 -111q-124 -81 -255 -81q-59 0 -114.5 24.5t-84.5 64.5q-44 60 -44 212v458q0 88 -6 120q-16 79 -62 103q-29 15 -88 19v20q103 4 246 20t272 37v-741q0 -100 22 -136q30 -52 100 -52q71 0 148 76v534q0 88 -7 120q-15 79 -61 103
q-29 15 -88 19v20q102 4 245.5 20t272.5 37v-678q1 -112 14 -143q32 -82 134 -90v-20q-95 -19 -178 -42q-50 -14 -270 -86z" />
    <glyph glyph-name="v" unicode="v" horiz-adv-x="1183" 
d="M771 379l48 100q87 177 87 330q0 70 -17 123q-12 39 -56 72v20h391v-20q-141 -42 -313 -394l-323 -665l-417 846q-56 114 -99 156q-38 35 -113 57v20h669v-20q-91 -18 -91 -85q0 -47 53 -159z" />
    <glyph glyph-name="w" unicode="w" horiz-adv-x="1938" 
d="M777 390l157 335q-66 151 -105 205q-31 46 -63 60q-20 8 -59 14v20h645v-20q-87 -13 -87 -86q0 -37 29 -109q14 -33 58 -130l131 -289q57 120 80 176q60 141 60 265q0 83 -32 127q-21 29 -75 46v20h463v-20q-196 -48 -404 -482l-275 -577l-350 753l-353 -753l-398 812
q-66 135 -94 167q-44 55 -90 71q-19 6 -56 9v20h634v-20q-58 -9 -58 -63q0 -45 45 -140z" />
    <glyph glyph-name="x" unicode="x" horiz-adv-x="1303" 
d="M788 666l319 -443q88 -122 122 -153q37 -33 114 -50v-20h-713v20q90 27 90 96q0 30 -23 73q-9 19 -67 103l-101 148q-56 -73 -82 -124q-46 -89 -46 -176q0 -84 66 -120v-20h-508v20q90 26 167 81q86 62 231 199q83 79 155 162l-259 350q-82 109 -138 151q-45 33 -100 41
v20h653v-20q-47 -19 -47 -62t74 -146l76 -107q43 49 66 83q44 63 44 127q0 74 -57 105v20h420v-20q-85 -25 -215 -120q-135 -102 -241 -218z" />
    <glyph glyph-name="y" unicode="y" horiz-adv-x="1217" 
d="M774 380q57 113 89 187q58 133 58 252q0 83 -34 129q-28 39 -94 56v20h465v-20q-82 -20 -145 -89q-97 -110 -198 -311l-361 -728q-151 -306 -366 -306q-104 0 -174 58q-66 54 -66 148q0 77 51 127q53 51 130 51q58 0 100 -29q30 -20 69 -70q54 -71 98 -71q68 0 120 81
q20 32 62 116l-408 829q-48 96 -63 116q-37 48 -80 65q-22 8 -68 13v20h671v-20q-90 -7 -90 -88q0 -56 44 -147z" />
    <glyph glyph-name="z" unicode="z" horiz-adv-x="1160" 
d="M1085 1024l-625 -1000q174 5 378 174q140 121 247 309l20 -6l-154 -542q-45 28 -74 34q-32 7 -108 7h-742l629 1000q-161 -24 -348 -152q-137 -97 -217 -247l-20 5l137 476q18 -33 40 -44q28 -14 95 -14h742z" />
    <glyph glyph-name="braceleft" unicode="{" horiz-adv-x="594" 
d="M-27 629v36q56 5 85 29q23 19 32 48q10 33 10 104q0 58 -1 91q-2 114 -2 125q0 92 17 216q16 117 88 174q63 50 144 50h235v-38q-74 -2 -109 -30q-64 -54 -71 -205q-1 -20 -1 -281q0 -113 -7 -144q-34 -128 -243 -154v-6q115 -13 181 -73q54 -51 62 -136q1 -23 2 -145
l1 -142q0 -163 7 -220q12 -84 53 -120t125 -36v-38h-254q-47 0 -96 25t-80 65q-59 76 -59 241q0 36 4 268q2 97 2 125q0 112 -51 150q-22 17 -74 21z" />
    <glyph glyph-name="bar" unicode="|" 
d="M378 1365h270v-1706h-270v1706z" />
    <glyph glyph-name="braceright" unicode="}" horiz-adv-x="594" 
d="M622 665v-36q-58 -5 -82 -27q-43 -41 -43 -144q0 -35 5 -290q1 -74 1 -103q0 -165 -59 -241q-31 -40 -80 -65t-96 -25h-254v38q65 0 99 18q63 32 79 138q7 54 7 220l1 142q1 149 11 196q23 90 131 133q45 18 103 25v6q-151 20 -216 98q-35 47 -34 140v204q0 156 -10 222
q-14 79 -53 113t-118 37v38h235q81 0 144 -50q72 -57 88 -174q17 -125 17 -212q0 -15 -2 -129q-1 -33 -1 -91q0 -89 18 -122q28 -52 109 -59z" />
    <glyph glyph-name="asciitilde" unicode="~" horiz-adv-x="1365" 
d="M1007 1502l59 -36q-41 -85 -115 -174q-31 -37 -56 -51q-41 -23 -102 -23q-36 0 -81 14q-26 9 -102 39q-61 24 -117 24q-54 0 -91 -31q-1 0 -46 -44l-56 34q73 136 122 184q68 66 139 66q47 0 153 -38q111 -40 162 -40q67 0 131 76z" />
    <glyph glyph-name="Adieresis" unicode="&#xc4;" horiz-adv-x="1625" 
d="M854 523h-413q-52 -140 -52 -248q0 -124 67 -195q53 -55 136 -60v-20h-633v20q135 19 260 164q114 136 195 349l207 545q-32 62 -80 108q87 42 197 142q82 77 151 160q56 -153 106 -275l264 -637q175 -408 210 -441q55 -80 124 -104q27 -8 73 -11v-20h-827v20
q146 6 146 114q0 80 -86 283zM847 547l-210 508l-189 -508h399zM572 1846q72 0 125 -52q52 -53 52 -127q0 -75 -52 -127q-53 -53 -127 -53q-75 0 -127 53q-53 52 -53 126q0 76 53 128t129 52zM1056 1846q72 0 125 -52q52 -53 52 -127q0 -75 -52 -127q-53 -53 -127 -53
q-75 0 -127 53q-53 52 -53 126q0 76 53 128t129 52z" />
    <glyph glyph-name="Aring" unicode="&#xc5;" horiz-adv-x="1625" 
d="M854 523h-413q-52 -140 -52 -248q0 -124 67 -195q53 -55 136 -60v-20h-633v20q135 19 260 164q114 136 195 349l207 545q-32 62 -80 108q87 42 197 142q82 77 151 160q56 -153 106 -275l264 -637q175 -408 210 -441q55 -80 124 -104q27 -8 73 -11v-20h-827v20
q146 6 146 114q0 80 -86 283zM847 547l-210 508l-189 -508h399zM815 1915q76 0 139 -50q75 -61 75 -157q0 -95 -75 -156q-62 -50 -141 -50q-80 0 -141 50q-76 62 -76 156q0 97 76 157q63 50 143 50zM811 1885q-47 0 -66 -42q-20 -46 -20 -135q0 -88 20 -134q18 -42 68 -42
q48 0 67 42q20 46 20 133q0 92 -20 136q-19 42 -69 42z" />
    <glyph glyph-name="Ccedilla" unicode="&#xc7;" horiz-adv-x="1369" 
d="M753 -26q-9 -33 -22 -62q84 -7 133 -49q53 -46 53 -123q0 -71 -49 -125q-57 -64 -144 -64q-43 0 -80 17q-55 26 -55 67q0 28 29 28q25 0 45 -36q25 -46 64 -46q33 0 53 25q16 20 16 53q0 50 -41 86q-40 35 -100 35q-20 0 -52 -4q45 49 77 102t45 99q-193 22 -349 119
q-150 93 -237 245q-91 161 -91 346q0 227 133 407q121 164 315 242q139 56 291 56q118 0 276 -37q78 -19 110 -19q38 0 50 40h21l32 -545h-21q-64 207 -189 362q-139 172 -289 172q-68 0 -124.5 -40t-88.5 -111q-86 -191 -86 -539q0 -188 28.5 -319.5t89.5 -224.5
q49 -74 135 -111q45 -20 96 -20q152 0 296 216q100 150 151 349h20l-18 -585h-21q-3 42 -44 42q-20 0 -97 -14l-49 -9q-142 -27 -251 -27q-27 0 -61 2z" />
    <glyph glyph-name="Eacute" unicode="&#xc9;" horiz-adv-x="1415" 
d="M608 1341v-630q153 10 256 92q97 82 113 209h20v-631h-20q-28 132 -130 224q-63 55 -143 73q-31 7 -96 11v-485q0 -106 25 -141q27 -39 95 -39q194 0 384 165q177 153 262 393h21l-93 -582h-1288v20q116 7 154 58q28 37 34 118q3 28 3 155v663q0 157 -10 212
q-16 78 -80 101q-37 13 -101 18v20h1207l83 -470h-21q-67 168 -209 300q-165 146 -408 146h-58zM581 1495l87 109q45 58 86 135q64 118 153 118q49 0 82 -34q34 -36 34 -85q0 -55 -46 -91q-38 -30 -123 -57q-97 -29 -154 -59l-99 -56z" />
    <glyph glyph-name="Ntilde" unicode="&#xd1;" horiz-adv-x="1646" 
d="M627 1365l731 -832v306q0 281 -101 418q-41 52 -95 71q-25 9 -80 17v20h605v-20q-85 -10 -127 -35q-177 -122 -175 -558v-820l-1081 1232v-584q2 -312 76 -428q49 -80 122 -110q33 -14 106 -22v-20h-649v20q172 26 250 166q43 81 57 207q11 99 11 224v370q0 94 -6 137
t-24 74q-45 84 -158 126q-55 19 -129 21v20h667zM1176 1770h23q-18 -93 -60 -151q-61 -85 -150 -85q-59 0 -203 44q-163 51 -209 51q-68 0 -106 -88h-23q14 98 56 162q63 95 161 95q47 0 118 -21q12 -3 106 -33q146 -45 204 -45q35 0 57 26q11 13 26 45z" />
    <glyph glyph-name="Odieresis" unicode="&#xd6;" horiz-adv-x="1584" 
d="M801 1392q262 0 476 -173q260 -210 260 -537q0 -325 -260 -536q-213 -173 -485 -173t-485 173q-259 211 -259 535q0 332 259 538q219 173 494 173zM787 1365q-101 0 -173 -78q-122 -132 -122 -605q0 -340 70 -520q30 -80 102 -127q54 -35 129 -35q107 0 178 78
q122 132 122 597q0 355 -69 528q-32 78 -93 120t-144 42zM552 1846q72 0 125 -52q52 -53 52 -127q0 -75 -52 -127q-53 -53 -127 -53q-75 0 -127 53q-53 52 -53 126q0 76 53 128t129 52zM1036 1846q72 0 125 -52q52 -53 52 -127q0 -75 -52 -127q-53 -53 -127 -53
q-75 0 -127 53q-53 52 -53 126q0 76 53 128t129 52z" />
    <glyph glyph-name="Udieresis" unicode="&#xdc;" horiz-adv-x="1543" 
d="M1584 1365v-20q-75 -15 -123 -62q-72 -74 -106.5 -235.5t-34.5 -424.5v-157q0 -184 -45 -273q-113 -220 -477 -220q-295 0 -462 114q-96 65 -123 167q-22 79 -22 218v542q0 156 -10 212q-16 78 -80 101q-37 13 -101 18v20h771v-20q-107 -7 -143 -57q-25 -38 -31 -119
q-3 -30 -3 -155v-477q0 -193 15 -267q25 -128 129 -184q83 -44 192 -44q210 0 300 131q41 60 55 139q8 49 8 154v188q2 310 -50 489q-33 111 -99 162q-29 21 -79 40v20h519zM600 1846q72 0 125 -52q52 -53 52 -127q0 -75 -52 -127q-53 -53 -127 -53q-75 0 -127 53
q-53 52 -53 126q0 76 53 128t129 52zM1084 1846q72 0 125 -52q52 -53 52 -127q0 -75 -52 -127q-53 -53 -127 -53q-75 0 -127 53q-53 52 -53 126q0 76 53 128t129 52z" />
    <glyph glyph-name="aacute" unicode="&#xe1;" horiz-adv-x="1240" 
d="M1248 152l13 -16q-69 -57 -121 -90q-114 -74 -222 -74q-164 0 -203 195q-61 -84 -122 -125q-105 -69 -247 -69q-146 0 -229 80q-62 59 -62 144q0 103 92 177q134 108 567 234v107q0 187 -27 231q-32 52 -93 52q-98 0 -140 -81q-20 -40 -37 -179q-12 -90 -59 -141
q-64 -71 -158 -71q-63 0 -103 41q-39 40 -39 103q0 124 175 225q101 58 250 103q178 54 334 54q111 0 180 -57q47 -40 62 -90q17 -54 17 -137v-471q0 -99 14 -130q19 -43 76 -43q33 0 82 28zM714 584q-99 -32 -147 -66q-95 -67 -95 -215q0 -190 119 -190q52 0 88 40
q35 39 35 114v317zM494 1143l87 109q45 59 86 135q64 118 153 118q49 0 82 -34q34 -35 34 -85q0 -55 -46 -91q-38 -30 -123 -56q-96 -29 -154 -60l-99 -56z" />
    <glyph glyph-name="agrave" unicode="&#xe0;" horiz-adv-x="1240" 
d="M1248 152l13 -16q-69 -57 -121 -90q-114 -74 -222 -74q-164 0 -203 195q-61 -84 -122 -125q-105 -69 -247 -69q-146 0 -229 80q-62 59 -62 144q0 103 92 177q134 108 567 234v107q0 187 -27 231q-32 52 -93 52q-98 0 -140 -81q-20 -40 -37 -179q-12 -90 -59 -141
q-64 -71 -158 -71q-63 0 -103 41q-39 40 -39 103q0 124 175 225q101 58 250 103q178 54 334 54q111 0 180 -57q47 -40 62 -90q17 -54 17 -137v-471q0 -99 14 -130q19 -43 76 -43q33 0 82 28zM714 584q-99 -32 -147 -66q-95 -67 -95 -215q0 -190 119 -190q52 0 88 40
q35 39 35 114v317zM747 1143l-20 -20l-100 56q-57 31 -153 60q-85 26 -123 56q-46 36 -46 91q0 50 34 85q33 34 82 34q59 0 106 -52q28 -31 75 -118q20 -36 58 -83z" />
    <glyph glyph-name="acircumflex" unicode="&#xe2;" horiz-adv-x="1240" 
d="M1248 152l13 -16q-69 -57 -121 -90q-114 -74 -222 -74q-164 0 -203 195q-61 -84 -122 -125q-105 -69 -247 -69q-146 0 -229 80q-62 59 -62 144q0 103 92 177q134 108 567 234v107q0 187 -27 231q-32 52 -93 52q-98 0 -140 -81q-20 -40 -37 -179q-12 -90 -59 -141
q-64 -71 -158 -71q-63 0 -103 41q-39 40 -39 103q0 124 175 225q101 58 250 103q178 54 334 54q111 0 180 -57q47 -40 62 -90q17 -54 17 -137v-471q0 -99 14 -130q19 -43 76 -43q33 0 82 28zM714 584q-99 -32 -147 -66q-95 -67 -95 -215q0 -190 119 -190q52 0 88 40
q35 39 35 114v317zM962 1204l-14 -16l-328 106l-327 -106l-14 16l279 261h125z" />
    <glyph glyph-name="adieresis" unicode="&#xe4;" horiz-adv-x="1240" 
d="M1248 152l13 -16q-69 -57 -121 -90q-114 -74 -222 -74q-164 0 -203 195q-61 -84 -122 -125q-105 -69 -247 -69q-146 0 -229 80q-62 59 -62 144q0 103 92 177q134 108 567 234v107q0 187 -27 231q-32 52 -93 52q-98 0 -140 -81q-20 -40 -37 -179q-12 -90 -59 -141
q-64 -71 -158 -71q-63 0 -103 41q-39 40 -39 103q0 124 175 225q101 58 250 103q178 54 334 54q111 0 180 -57q47 -40 62 -90q17 -54 17 -137v-471q0 -99 14 -130q19 -43 76 -43q33 0 82 28zM714 584q-99 -32 -147 -66q-95 -67 -95 -215q0 -190 119 -190q52 0 88 40
q35 39 35 114v317zM401 1490q66 0 113 -48q48 -47 48 -115t-48 -115q-48 -48 -115 -48q-68 0 -115 48q-48 48 -48 115q0 68 48 115q48 48 117 48zM841 1490q66 0 113 -48q48 -47 48 -115t-48 -115q-48 -48 -115 -48t-115 48q-48 47 -48 115q0 69 48 115q49 48 117 48z" />
    <glyph glyph-name="atilde" unicode="&#xe3;" horiz-adv-x="1240" 
d="M1248 152l13 -16q-69 -57 -121 -90q-114 -74 -222 -74q-164 0 -203 195q-61 -84 -122 -125q-105 -69 -247 -69q-146 0 -229 80q-62 59 -62 144q0 103 92 177q134 108 567 234v107q0 187 -27 231q-32 52 -93 52q-98 0 -140 -81q-20 -40 -37 -179q-12 -90 -59 -141
q-64 -71 -158 -71q-63 0 -103 41q-39 40 -39 103q0 124 175 225q101 58 250 103q178 54 334 54q111 0 180 -57q47 -40 62 -90q17 -54 17 -137v-471q0 -99 14 -130q19 -43 76 -43q33 0 82 28zM714 584q-99 -32 -147 -66q-95 -67 -95 -215q0 -190 119 -190q52 0 88 40
q35 39 35 114v317zM941 1428h21q-17 -93 -55 -151q-55 -84 -136 -84q-48 0 -133 27q-20 7 -114 39q-88 29 -128 29q-62 0 -97 -88h-20q13 97 51 161q58 95 147 95q42 0 106 -21q12 -3 97 -33q132 -45 186 -45q31 0 51 26q10 13 24 45z" />
    <glyph glyph-name="aring" unicode="&#xe5;" horiz-adv-x="1240" 
d="M1248 152l13 -16q-69 -57 -121 -90q-114 -74 -222 -74q-164 0 -203 195q-61 -84 -122 -125q-105 -69 -247 -69q-146 0 -229 80q-62 59 -62 144q0 103 92 177q134 108 567 234v107q0 187 -27 231q-32 52 -93 52q-98 0 -140 -81q-20 -40 -37 -179q-12 -90 -59 -141
q-64 -71 -158 -71q-63 0 -103 41q-39 40 -39 103q0 124 175 225q101 58 250 103q178 54 334 54q111 0 180 -57q47 -40 62 -90q17 -54 17 -137v-471q0 -99 14 -130q19 -43 76 -43q33 0 82 28zM714 584q-99 -32 -147 -66q-95 -67 -95 -215q0 -190 119 -190q52 0 88 40
q35 39 35 114v317zM622 1536q70 0 126 -46q69 -55 69 -142q0 -86 -69 -141q-56 -46 -128 -46t-128 46q-69 55 -69 141q0 88 69 142q57 46 130 46zM618 1509q-40 0 -59 -39t-19 -122q0 -79 18 -122q17 -38 61 -38q45 0 62 38q18 42 18 121q0 83 -18 124q-17 38 -63 38z" />
    <glyph glyph-name="ccedilla" unicode="&#xe7;" horiz-adv-x="1111" 
d="M582 -27q-7 -25 -19 -52q77 -7 121 -46q48 -41 48 -111q0 -65 -44 -114q-53 -58 -131 -58q-40 0 -74 16q-50 23 -50 59q0 26 27 26q22 0 40 -32q24 -42 59 -42q30 0 48 22q15 19 15 49q0 45 -37 78q-37 32 -92 32q-17 0 -47 -4q81 85 109 177q-165 5 -288 87
q-103 68 -162 190q-57 118 -57 245q0 117 47.5 224t133.5 185q162 147 394 147q192 0 315 -108q114 -101 114 -231q0 -70 -42 -122q-47 -59 -126 -59q-82 0 -131 59q-41 49 -41 119q0 38 20 104q17 56 17 89q0 51 -33 85q-37 37 -92 37q-95 0 -155 -108q-66 -119 -66 -275
q0 -181 89 -290q96 -116 260 -116q172 0 307 140l24 -13q-84 -191 -208.5 -287.5t-292.5 -101.5z" />
    <glyph glyph-name="eacute" unicode="&#xe9;" horiz-adv-x="1156" 
d="M1107 611h-679q3 -383 341 -383q129 0 220 63q55 39 107 117l19 -9q-60 -156 -135 -247q-146 -179 -392 -179q-238 0 -395 161q-145 149 -145 364q0 255 190 417q157 135 367 135q158 0 284 -79q129 -82 185 -220q22 -54 33 -140zM743 635q0 175 -14 247
q-28 140 -128 140q-116 0 -155 -188q-18 -86 -18 -199h315zM465 1143l87 109q45 59 86 135q64 118 153 118q49 0 82 -34q34 -35 34 -85q0 -55 -46 -91q-38 -30 -123 -56q-96 -29 -154 -60l-99 -56z" />
    <glyph glyph-name="egrave" unicode="&#xe8;" horiz-adv-x="1156" 
d="M1107 611h-679q3 -383 341 -383q129 0 220 63q55 39 107 117l19 -9q-60 -156 -135 -247q-146 -179 -392 -179q-238 0 -395 161q-145 149 -145 364q0 255 190 417q157 135 367 135q158 0 284 -79q129 -82 185 -220q22 -54 33 -140zM743 635q0 175 -14 247
q-28 140 -128 140q-116 0 -155 -188q-18 -86 -18 -199h315zM718 1143l-20 -20l-100 56q-57 31 -153 60q-85 26 -123 56q-46 36 -46 91q0 50 34 85q33 34 82 34q59 0 106 -52q28 -31 75 -118q20 -36 58 -83z" />
    <glyph glyph-name="ecircumflex" unicode="&#xea;" horiz-adv-x="1156" 
d="M1107 611h-679q3 -383 341 -383q129 0 220 63q55 39 107 117l19 -9q-60 -156 -135 -247q-146 -179 -392 -179q-238 0 -395 161q-145 149 -145 364q0 255 190 417q157 135 367 135q158 0 284 -79q129 -82 185 -220q22 -54 33 -140zM743 635q0 175 -14 247
q-28 140 -128 140q-116 0 -155 -188q-18 -86 -18 -199h315zM933 1204l-14 -16l-328 106l-327 -106l-14 16l279 261h125z" />
    <glyph glyph-name="edieresis" unicode="&#xeb;" horiz-adv-x="1156" 
d="M1107 611h-679q3 -383 341 -383q129 0 220 63q55 39 107 117l19 -9q-60 -156 -135 -247q-146 -179 -392 -179q-238 0 -395 161q-145 149 -145 364q0 255 190 417q157 135 367 135q158 0 284 -79q129 -82 185 -220q22 -54 33 -140zM743 635q0 175 -14 247
q-28 140 -128 140q-116 0 -155 -188q-18 -86 -18 -199h315zM373 1490q66 0 113 -48q48 -47 48 -115t-48 -115q-48 -48 -115 -48q-68 0 -115 48q-48 48 -48 115q0 68 48 115q48 48 117 48zM813 1490q66 0 113 -48q48 -47 48 -115t-48 -115q-48 -48 -115 -48t-115 48
q-48 47 -48 115q0 69 48 115q49 48 117 48z" />
    <glyph glyph-name="iacute" unicode="&#xed;" horiz-adv-x="703" 
d="M2 872l-2 21q331 76 539 158v-789q1 -105 8 -148q10 -59 56 -79q30 -12 86 -15v-20h-662v20q92 4 123 45q20 29 25 94q2 25 2 103v336q-1 109 -13 158q-34 114 -162 116zM225 1143l87 109q45 59 86 135q64 118 153 118q49 0 82 -34q34 -35 34 -85q0 -55 -46 -91
q-38 -30 -123 -56q-96 -29 -154 -60l-99 -56z" />
    <glyph glyph-name="igrave" unicode="&#xec;" horiz-adv-x="703" 
d="M2 872l-2 21q331 76 539 158v-789q1 -105 8 -148q10 -59 56 -79q30 -12 86 -15v-20h-662v20q92 4 123 45q20 29 25 94q2 25 2 103v336q-1 109 -13 158q-34 114 -162 116zM478 1143l-20 -20l-100 56q-57 31 -153 60q-85 26 -123 56q-46 36 -46 91q0 50 34 85q33 34 82 34
q59 0 106 -52q28 -31 75 -118q20 -36 58 -83z" />
    <glyph glyph-name="icircumflex" unicode="&#xee;" horiz-adv-x="703" 
d="M2 872l-2 21q331 76 539 158v-789q1 -105 8 -148q10 -59 56 -79q30 -12 86 -15v-20h-662v20q92 4 123 45q20 29 25 94q2 25 2 103v336q-1 109 -13 158q-34 114 -162 116zM693 1204l-14 -16l-328 106l-327 -106l-14 16l279 261h125z" />
    <glyph glyph-name="idieresis" unicode="&#xef;" horiz-adv-x="703" 
d="M2 872l-2 21q331 76 539 158v-789q1 -105 8 -148q10 -59 56 -79q30 -12 86 -15v-20h-662v20q92 4 123 45q20 29 25 94q2 25 2 103v336q-1 109 -13 158q-34 114 -162 116zM146 1490q66 0 113 -48q48 -47 48 -115t-48 -115q-48 -48 -115 -48q-68 0 -115 48q-48 48 -48 115
q0 68 48 115q48 48 117 48zM559 1490q66 0 113 -48q48 -47 48 -115t-48 -115q-48 -48 -115 -48t-115 48q-48 47 -48 115q0 69 48 115q49 48 117 48z" />
    <glyph glyph-name="ntilde" unicode="&#xf1;" horiz-adv-x="1333" 
d="M539 856q66 67 118 107q118 88 256 88q146 0 209 -86q47 -64 47 -214v-529q1 -80 3 -108q9 -88 120 -94v-20h-581v20q65 5 84 49q12 31 12 153v387q0 154 -7 191q-10 54 -47 78q-28 18 -58 18q-73 0 -156 -72v-602q0 -122 12 -153q20 -44 84 -49v-20h-622v20
q101 4 134 45q22 30 27 94q3 24 3 103v336q-1 109 -13 158q-34 114 -162 116l-2 21q263 60 539 158v-195zM1028 1428h21q-17 -93 -55 -151q-55 -84 -136 -84q-48 0 -133 27q-20 7 -114 39q-88 29 -128 29q-62 0 -97 -88h-20q13 97 51 161q58 95 147 95q42 0 106 -21
q12 -3 97 -33q132 -45 186 -45q31 0 51 26q10 13 24 45z" />
    <glyph glyph-name="oacute" unicode="&#xf3;" horiz-adv-x="1227" 
d="M621 1051q210 0 372 -136q187 -158 187 -403q0 -244 -187 -403q-161 -136 -379 -136t-379 136q-187 159 -187 402q0 249 187 404q165 136 386 136zM611 1024q-69 0 -110 -66q-57 -91 -57 -447q0 -257 33 -390q15 -56 51.5 -88.5t85.5 -32.5q72 0 113 66q57 91 57 439
q0 272 -33 398q-32 121 -140 121zM487 1143l87 109q45 59 86 135q64 118 153 118q49 0 82 -34q34 -35 34 -85q0 -55 -46 -91q-38 -30 -123 -56q-96 -29 -154 -60l-99 -56z" />
    <glyph glyph-name="ograve" unicode="&#xf2;" horiz-adv-x="1227" 
d="M621 1051q210 0 372 -136q187 -158 187 -403q0 -244 -187 -403q-161 -136 -379 -136t-379 136q-187 159 -187 402q0 249 187 404q165 136 386 136zM611 1024q-69 0 -110 -66q-57 -91 -57 -447q0 -257 33 -390q15 -56 51.5 -88.5t85.5 -32.5q72 0 113 66q57 91 57 439
q0 272 -33 398q-32 121 -140 121zM740 1143l-20 -20l-100 56q-57 31 -153 60q-85 26 -123 56q-46 36 -46 91q0 50 34 85q33 34 82 34q59 0 106 -52q28 -31 75 -118q20 -36 58 -83z" />
    <glyph glyph-name="ocircumflex" unicode="&#xf4;" horiz-adv-x="1227" 
d="M621 1051q210 0 372 -136q187 -158 187 -403q0 -244 -187 -403q-161 -136 -379 -136t-379 136q-187 159 -187 402q0 249 187 404q165 136 386 136zM611 1024q-69 0 -110 -66q-57 -91 -57 -447q0 -257 33 -390q15 -56 51.5 -88.5t85.5 -32.5q72 0 113 66q57 91 57 439
q0 272 -33 398q-32 121 -140 121zM955 1204l-14 -16l-328 106l-327 -106l-14 16l279 261h125z" />
    <glyph glyph-name="odieresis" unicode="&#xf6;" horiz-adv-x="1227" 
d="M621 1051q210 0 372 -136q187 -158 187 -403q0 -244 -187 -403q-161 -136 -379 -136t-379 136q-187 159 -187 402q0 249 187 404q165 136 386 136zM611 1024q-69 0 -110 -66q-57 -91 -57 -447q0 -257 33 -390q15 -56 51.5 -88.5t85.5 -32.5q72 0 113 66q57 91 57 439
q0 272 -33 398q-32 121 -140 121zM395 1490q66 0 113 -48q48 -47 48 -115t-48 -115q-48 -48 -115 -48q-68 0 -115 48q-48 48 -48 115q0 68 48 115q48 48 117 48zM835 1490q66 0 113 -48q48 -47 48 -115t-48 -115q-48 -48 -115 -48t-115 48q-48 47 -48 115q0 69 48 115
q49 48 117 48z" />
    <glyph glyph-name="otilde" unicode="&#xf5;" horiz-adv-x="1227" 
d="M621 1051q210 0 372 -136q187 -158 187 -403q0 -244 -187 -403q-161 -136 -379 -136t-379 136q-187 159 -187 402q0 249 187 404q165 136 386 136zM611 1024q-69 0 -110 -66q-57 -91 -57 -447q0 -257 33 -390q15 -56 51.5 -88.5t85.5 -32.5q72 0 113 66q57 91 57 439
q0 272 -33 398q-32 121 -140 121zM934 1428h21q-17 -93 -55 -151q-55 -84 -136 -84q-48 0 -133 27q-20 7 -114 39q-88 29 -128 29q-62 0 -97 -88h-20q13 97 51 161q58 95 147 95q42 0 106 -21q12 -3 97 -33q132 -45 186 -45q31 0 51 26q10 13 24 45z" />
    <glyph glyph-name="uacute" unicode="&#xfa;" horiz-adv-x="1323" 
d="M796 -27v192q-88 -80 -134 -111q-124 -81 -255 -81q-59 0 -114.5 24.5t-84.5 64.5q-44 60 -44 212v458q0 88 -6 120q-16 79 -62 103q-29 15 -88 19v20q103 4 246 20t272 37v-741q0 -100 22 -136q30 -52 100 -52q71 0 148 76v534q0 88 -7 120q-15 79 -61 103
q-29 15 -88 19v20q102 4 245.5 20t272.5 37v-678q1 -112 14 -143q32 -82 134 -90v-20q-95 -19 -178 -42q-50 -14 -270 -86zM534 1143l87 109q45 59 86 135q64 118 153 118q49 0 82 -34q34 -35 34 -85q0 -55 -46 -91q-38 -30 -123 -56q-96 -29 -154 -60l-99 -56z" />
    <glyph glyph-name="ugrave" unicode="&#xf9;" horiz-adv-x="1323" 
d="M796 -27v192q-88 -80 -134 -111q-124 -81 -255 -81q-59 0 -114.5 24.5t-84.5 64.5q-44 60 -44 212v458q0 88 -6 120q-16 79 -62 103q-29 15 -88 19v20q103 4 246 20t272 37v-741q0 -100 22 -136q30 -52 100 -52q71 0 148 76v534q0 88 -7 120q-15 79 -61 103
q-29 15 -88 19v20q102 4 245.5 20t272.5 37v-678q1 -112 14 -143q32 -82 134 -90v-20q-95 -19 -178 -42q-50 -14 -270 -86zM788 1143l-20 -20l-100 56q-57 31 -153 60q-85 26 -123 56q-46 36 -46 91q0 50 34 85q33 34 82 34q59 0 106 -52q28 -31 75 -118q20 -36 58 -83z" />
    <glyph glyph-name="ucircumflex" unicode="&#xfb;" horiz-adv-x="1323" 
d="M796 -27v192q-88 -80 -134 -111q-124 -81 -255 -81q-59 0 -114.5 24.5t-84.5 64.5q-44 60 -44 212v458q0 88 -6 120q-16 79 -62 103q-29 15 -88 19v20q103 4 246 20t272 37v-741q0 -100 22 -136q30 -52 100 -52q71 0 148 76v534q0 88 -7 120q-15 79 -61 103
q-29 15 -88 19v20q102 4 245.5 20t272.5 37v-678q1 -112 14 -143q32 -82 134 -90v-20q-95 -19 -178 -42q-50 -14 -270 -86zM1003 1204l-14 -16l-328 106l-327 -106l-14 16l279 261h125z" />
    <glyph glyph-name="udieresis" unicode="&#xfc;" horiz-adv-x="1323" 
d="M796 -27v192q-88 -80 -134 -111q-124 -81 -255 -81q-59 0 -114.5 24.5t-84.5 64.5q-44 60 -44 212v458q0 88 -6 120q-16 79 -62 103q-29 15 -88 19v20q103 4 246 20t272 37v-741q0 -100 22 -136q30 -52 100 -52q71 0 148 76v534q0 88 -7 120q-15 79 -61 103
q-29 15 -88 19v20q102 4 245.5 20t272.5 37v-678q1 -112 14 -143q32 -82 134 -90v-20q-95 -19 -178 -42q-50 -14 -270 -86zM442 1490q66 0 113 -48q48 -47 48 -115t-48 -115q-48 -48 -115 -48q-68 0 -115 48q-48 48 -48 115q0 68 48 115q48 48 117 48zM882 1490
q66 0 113 -48q48 -47 48 -115t-48 -115q-48 -48 -115 -48t-115 48q-48 47 -48 115q0 69 48 115q49 48 117 48z" />
    <glyph glyph-name="dagger" unicode="&#x2020;" horiz-adv-x="898" 
d="M435 900q-14 63 -72 146q-36 52 -53 84q-22 44 -22 90q0 72 43 121q45 51 119 51q73 0 118 -51q43 -49 43 -121q0 -46 -22 -90q-16 -31 -53 -84q-58 -84 -72 -146q79 8 190 86q59 39 106 39q62 0 99 -51q26 -37 26 -87q0 -51 -26 -88q-37 -51 -98 -51q-41 0 -89 28
q-9 5 -55 36q-88 55 -154 61q3 -50 28.5 -114t100.5 -212q-118 -421 -119 -950h-56q0 476 -122 950q25 33 55 87.5t47 97.5q39 110 39 141q-16 -4 -21 -5q-64 -8 -170 -81q-58 -39 -106 -39q-62 0 -99 51q-26 37 -26 88q0 50 26 87q37 51 99 51q40 0 88 -28q9 -5 55 -36
q86 -54 153 -61z" />
    <glyph glyph-name="degree" unicode="&#xb0;" horiz-adv-x="819" 
d="M414 1379q143 0 247 -104q104 -103 104 -251q0 -147 -104 -251t-251 -104t-251 104t-104 250q0 151 104 252q107 104 255 104zM406 1342q-127 0 -221 -93q-93 -93 -93 -225t93 -225t225 -93t225 93t93 224q0 135 -93 226q-96 93 -229 93z" />
    <glyph glyph-name="cent" unicode="&#xa2;" horiz-adv-x="1229" 
d="M647 171v-273h-27v272q-174 6 -297 94q-103 73 -160 185q-59 114 -59 245q0 179 105 324q98 135 247 191q55 20 164 37v276h27v-274q32 1 52 1q150 0 259 -75q138 -95 138 -240q0 -72 -42 -123q-46 -55 -120 -55q-77 0 -129 51q-47 45 -47 132q0 42 8 84q10 60 10 83
q0 30 -16 58t-40 41q-30 18 -73 18v-734q90 -41 182 -41q177 0 275 112l21 -7q-53 -108 -92 -170q-90 -138 -247 -188q-64 -21 -139 -24zM620 1219q-72 -18 -106 -62q-63 -83 -63 -252q0 -191 79 -311q30 -44 90 -89v714z" />
    <glyph glyph-name="sterling" unicode="&#xa3;" horiz-adv-x="1229" 
d="M889 821v-85h-279q30 -85 30 -171q0 -113 -62 -232l46 -7q251 -35 328 -35q146 0 205 122q27 55 38 174h20q-8 -246 -86 -402q-58 -116 -139 -166q-76 -46 -184 -46q-187 0 -356 138q-113 -138 -244 -138q-74 0 -126 39q-53 39 -53 104q0 110 130 176q78 40 241 41
q-15 89 -50 173q-19 43 -78 146q-23 42 -42 84h-120v85h87q-25 61 -25 121q0 191 162 333q133 117 311 117q153 0 269 -81q133 -92 133 -221q0 -66 -45 -109q-43 -40 -108 -40q-81 0 -126 70q-33 53 -33 128q0 34 7 71q7 39 7 58q0 41 -36 71q-30 26 -79 26q-84 0 -135 -65
q-42 -55 -42 -141q0 -76 54 -194l69 -144h311zM369 161q-101 65 -188 65q-63 0 -107 -38q-33 -28 -33 -67q0 -51 46 -84q36 -27 93 -27q76 0 126 47q31 29 48 67q16 36 15 37z" />
    <glyph glyph-name="section" unicode="&#xa7;" horiz-adv-x="1229" 
d="M1005 1296l21 -314h-21q-55 147 -142 245q-123 138 -235 138q-57 0 -97 -33q-46 -39 -46 -101q0 -47 34 -82q29 -29 97 -61l308 -143q107 -50 158 -107q62 -71 62 -166q0 -174 -244 -336q69 -47 103 -91q63 -84 63 -196q0 -169 -131 -264q-117 -85 -318 -85
q-147 0 -274 34q-58 16 -163 57l-32 386h21q57 -183 156 -298q130 -152 263 -152q76 0 124 50q46 49 46 118q0 49 -26 83q-29 37 -131 87l-348 171q-166 81 -166 239q0 132 92 230q51 53 146 106q-66 55 -92 100q-35 60 -35 135q0 115 76 205q60 71 168 110q88 31 177 31
q170 0 386 -96zM357 792q-77 -38 -77 -96q0 -36 26 -58q21 -18 88 -51l473 -232q79 43 79 91q0 44 -55 77q-109 66 -238 128z" />
    <glyph glyph-name="bullet" unicode="&#x2022;" horiz-adv-x="1365" 
d="M689 978q113 0 196 -83q84 -83 84 -201t-83 -201t-201 -83q-116 0 -199 82q-85 84 -85 202q0 121 84 202q86 82 204 82z" />
    <glyph glyph-name="paragraph" unicode="&#xb6;" horiz-adv-x="1065" 
d="M499 -541v1198q-53 -1 -80 -1q-150 0 -243 51q-162 89 -162 297q0 118 57 205q70 104 219 137q90 19 197 19h551v-205h-218v-1701h-56v1701h-206v-1701h-59z" />
    <glyph glyph-name="germandbls" unicode="&#xdf;" horiz-adv-x="1435" 
d="M526 1492v-1492h-567v20q126 4 167 45q28 29 35 94q3 23 3 103v788q0 215 59 313q110 180 368 180q256 0 448 -110q90 -52 143 -141q40 -66 40 -140q0 -63 -32.5 -118t-86.5 -82q-65 -34 -169 -34q-55 0 -142 7q272 -57 413 -175q182 -152 182 -372q0 -163 -105 -277
q-118 -128 -310 -128q-212 0 -348 147l15 14q36 -29 51 -38q46 -28 97 -28q41 0 80.5 21t63.5 56q60 86 60 244q0 197 -76 347q-69 137 -199 178q-45 14 -120 16v21q61 1 89 6q77 14 119 86q36 61 36 169q0 125 -49 207q-59 97 -159 97q-40 0 -106 -24z" />
    <glyph glyph-name="registered" unicode="&#xae;" horiz-adv-x="1516" 
d="M767 1392q191 0 362 -104q172 -105 262 -283q77 -151 77 -322q0 -142 -54 -272t-154 -230q-99 -100 -230 -154t-272 -54q-140 0 -271 54t-231 154q-99 99 -153.5 229.5t-54.5 270.5q0 202 104 373q103 168 284 261q150 77 331 77zM1308 300q120 176 120 384
q0 133 -51 256t-145 216q-94 94 -217 145t-257 51q-133 0 -256.5 -51t-217.5 -145q-94 -93 -145 -216.5t-51 -256.5q0 -132 51 -255.5t145 -217.5t217.5 -145t257.5 -51q132 0 255 51t218 145q27 26 56 63h-331l-6 14q-80 193 -132 293q-38 71 -78 90q-27 11 -50 11h-15
v-191q0 -110 10 -140q16 -41 70 -48q9 -1 35 -3v-26h-485v26q60 3 84 21q24 20 28 67q3 23 3 103v399q0 109 -10 140q-16 41 -70 49q-8 1 -35 3v25h351q191 0 278 -25q103 -29 156 -92q42 -49 42 -108q0 -63 -46.5 -107t-136.5 -65q40 -12 58 -25q44 -33 88 -118l70 -134
q44 -84 70 -106q24 -20 72 -26zM676 709h28q86 0 121 44q36 46 36 140q0 92 -36 141q-33 44 -121 44h-28v-369z" />
    <glyph glyph-name="copyright" unicode="&#xa9;" horiz-adv-x="1516" 
d="M767 1392q135 0 264.5 -54.5t228.5 -152.5q100 -100 154 -230.5t54 -271.5q0 -142 -54 -272t-154 -230t-230.5 -154t-271.5 -54t-271.5 54t-230.5 154q-100 99 -154 229.5t-54 270.5q0 201 104 373q103 168 284 261q150 77 331 77zM750 1352q-128 0 -250 -51.5
t-216 -144.5t-145 -216.5t-51 -256.5q0 -132 51 -255.5t145 -217.5t217.5 -145t256.5 -51t256.5 51t217.5 145t145 217t51 255q0 134 -51.5 259t-144.5 215q-201 196 -482 196zM1040 1112l20 -340h-25q-28 89 -70 158q-100 162 -212 162q-172 0 -172 -408q0 -215 70 -322
q49 -76 133 -76q107 0 200 175q39 73 62 165h24l-11 -365h-25q-2 25 -20 25q-14 0 -87 -14q-83 -16 -152 -16q-190 0 -323 118q-143 126 -143 318q0 207 165 334q124 96 285 96q72 0 167 -23q46 -11 65 -11q18 0 25 24h24z" />
    <glyph glyph-name="trademark" unicode="&#x2122;" horiz-adv-x="2219" 
d="M593 1338v-578q0 -92 7 -123q10 -43 51 -55q25 -8 77 -11v-25h-536v25q86 4 112 33q17 20 21 65q2 14 2 91v577q-88 -15 -178 -93q-69 -64 -102 -137h-27l40 303q36 -35 73 -40q29 -4 119 -5h428q77 1 109 6q32 4 71 38l37 -302h-28q-37 90 -126 160q-80 59 -150 71z
M1591 871l206 494h385v-25q-76 -4 -98 -32q-15 -21 -19 -66q-2 -16 -2 -91v-391q0 -92 6 -124q9 -42 44 -54q22 -8 68 -11v-25h-503v25q76 4 98 32q15 21 19 66q2 17 2 91v524l-327 -792l-328 774v-371q1 -178 46 -248q28 -46 73 -63q20 -8 71 -13v-25h-419v24
q110 16 156 96q40 72 40 251v254q0 78 -9 101q-25 64 -158 68v25h445z" />
    <glyph glyph-name="acute" unicode="&#xb4;" 
d="M385 1143l87 109q45 59 86 135q64 118 153 118q49 0 82 -34q34 -35 34 -85q0 -55 -46 -91q-38 -30 -123 -56q-96 -29 -154 -60l-99 -56z" />
    <glyph glyph-name="dieresis" unicode="&#xa8;" 
d="M293 1490q66 0 113 -48q48 -47 48 -115t-48 -115q-48 -48 -115 -48q-68 0 -115 48q-48 48 -48 115q0 68 48 115q48 48 117 48zM733 1490q66 0 113 -48q48 -47 48 -115t-48 -115q-48 -48 -115 -48t-115 48q-48 47 -48 115q0 69 48 115q49 48 117 48z" />
    <glyph glyph-name="notequal" unicode="&#x2260;" horiz-adv-x="1174" 
d="M672 840l211 302l34 -23l-195 -279h411v-41h-440l-162 -232h602v-41h-631l-211 -302l-34 23l195 279h-411v41h440l162 232h-602v41h631z" />
    <glyph glyph-name="AE" unicode="&#xc6;" horiz-adv-x="2190" 
d="M980 524h-544q-21 -65 -29 -93q-26 -91 -26 -168q0 -107 57 -172q43 -49 101 -62q21 -5 55 -8v-21h-635v21q80 17 133 49q89 54 194 220q66 104 125 256l308 799h-149v20h1426l83 -470h-21q-67 168 -210 300q-164 146 -407 146h-58v-630q153 10 256 92q97 82 113 209h20
v-631h-20q-28 131 -130 224q-63 55 -143 73q-31 7 -96 11v-485q0 -106 25 -141q27 -39 95 -39q194 0 384 165q178 154 262 393h21l-94 -582h-1317v20q74 5 116 18q76 24 93 101q12 54 12 212v173zM980 548v467q0 157 -10 211q-16 79 -80 101q-48 18 -115 18h-28l-305 -797
h538z" />
    <glyph glyph-name="Oslash" unicode="&#xd8;" horiz-adv-x="1510" 
d="M330 101l-74 -101h-33l85 117q-153 115 -225 252t-72 313q0 326 259 537q213 173 485 173q216 0 402 -113l70 96h34l-81 -111q124 -89 188 -175q131 -175 131 -406q0 -326 -259 -537q-213 -173 -487 -173q-166 0 -312 67q-47 22 -111 61zM483 310q21 -106 53 -173
q68 -137 219 -137q107 0 179 78q121 132 121 601q0 215 -27 377zM1021 1092q-65 273 -265 273q-108 0 -180 -78q-121 -133 -121 -610q0 -167 21 -330z" />
    <glyph glyph-name="infinity" unicode="&#x221e;" horiz-adv-x="1365" 
d="M568 460q-54 -65 -100 -104q-82 -67 -186 -67q-149 0 -242 114q-84 103 -84 264q0 207 127 339q107 110 272 110q219 0 360 -226q31 76 86 132q98 99 235 99q183 0 289 -141q84 -111 84 -283q0 -211 -132 -336q-59 -56 -142.5 -88.5t-168.5 -32.5q-233 0 -398 220z
M773 809q175 -303 383 -303q78 0 129 50q58 56 58 138q0 169 -299 169q-146 0 -210 -28q-55 -24 -61 -26zM493 565q-58 105 -115 174q-89 108 -203 108q-77 0 -117 -53q-38 -52 -38 -117q0 -137 270 -137q81 0 142 13q47 10 61 12z" />
    <glyph glyph-name="plusminus" unicode="&#xb1;" horiz-adv-x="1133" 
d="M546 662h-526v41h526v526h41v-526h525v-41h-525v-525h-41v525zM20 41h1092v-41h-1092v41z" />
    <glyph glyph-name="lessequal" unicode="&#x2264;" 
d="M950 1341v-167l-424 -259l424 -294v-444l-875 607v20zM75 147h875v-147h-875v147z" />
    <glyph glyph-name="greaterequal" unicode="&#x2265;" 
d="M75 147h875v-147h-875v147zM75 177v167l424 259l-424 294v444l875 -619v-21z" />
    <glyph glyph-name="yen" unicode="&#xa5;" horiz-adv-x="1606" 
d="M996 533v-182q0 -157 10 -212q16 -78 80 -101q37 -13 101 -18v-20h-785v20q116 7 154 58q28 37 34 118q3 29 3 155v182h-264v27h261l-198 328h-259v27h242l-119 198q-78 127 -138 178q-51 41 -132 54v20h794v-20q-109 -13 -109 -99q0 -71 75 -194l83 -137h294
q64 141 64 258q0 79 -27 125q-19 33 -62 47v20h521v-20q-76 -22 -126 -54q-81 -53 -222 -231q-52 -66 -107 -145h307v-27h-325q-26 -39 -47 -73l-103 -172v-83h280v-27h-280zM1110 888h-265l135 -223l69 112q24 40 61 111z" />
    <glyph glyph-name="mu" unicode="&#xb5;" horiz-adv-x="1038" 
d="M1107 114v-46l-331 -93q-8 -2 -16 -2q-79 0 -126 124q-77 -130 -222 -130q-105 0 -163 76q-22 28 -51 89v-18q0 -96 88 -289q32 -71 32 -117q0 -40 -32 -71q-51 -50 -129 -50q-110 0 -158 68q-18 25 -18 65q0 58 21 145q61 252 68 579v492h360v-590q6 -157 15 -184
q7 -19 26.5 -33.5t37.5 -14.5q34 0 100 75v747h358v-643q0 -105 13 -140q14 -41 84 -41q3 0 21 1q12 1 22 1z" />
    <glyph glyph-name="partialdiff" unicode="&#x2202;" 
d="M259 1408l20 38q195 -61 354 -197q122 -103 195 -222q162 -265 162 -557q0 -264 -178 -409q-119 -96 -300 -96q-184 0 -305 103q-173 147 -173 403q0 265 176 400q122 94 309 94q15 0 60 -4q25 0 44 -5q-124 299 -364 452zM510 892q-57 0 -82 -39q-37 -57 -37 -257
q0 -319 17 -438q17 -120 105 -120q91 0 106 122q14 115 14 379q0 224 -23 284q-27 69 -100 69z" />
    <glyph glyph-name="summation" unicode="&#x2211;" horiz-adv-x="1365" 
d="M49 1365h1201v-389h-47q-12 130 -85 213q-83 92 -213 91h-395l369 -643l-529 -890h526q110 0 175 27q187 82 237 314h46l-68 -566h-1217l544 914z" />
    <glyph glyph-name="product" unicode="&#x220f;" horiz-adv-x="1365" 
d="M-144 1365h1654v-45h-46q-77 2 -113 -44q-23 -31 -23 -119v-1426q0 -88 23 -119q34 -45 108 -44h49v-46h-794v46h44q80 -1 113 44q23 31 23 119v1426q0 89 -23 119q-36 46 -113 44h-146q-77 2 -113 -44q-23 -31 -23 -119v-1426q0 -89 23 -119q34 -45 108 -44h50v-46h-795
v46h44q80 -1 113 44q23 31 23 119v1426q0 88 -23 119q-36 46 -113 44h-50v45z" />
    <glyph glyph-name="pi" unicode="&#x3c0;" 
d="M1153 990v-222h-205q-10 -27 -14 -44q-10 -31 -10 -106v-310q0 -103 18 -142q17 -40 78 -40q24 0 75 6v-48l-395 -107q-22 -6 -28 -6q-23 0 -56.5 30.5t-54.5 70.5q-25 47 -25 130v290q0 126 91 219q25 22 61 38q15 7 38 19h-310l-9 -163q-14 -251 -60 -465
q-21 -96 -64 -137q-60 -59 -155 -59q-78 0 -124 38q-43 36 -43 103q0 68 54 119q7 7 45 29q52 29 86 90q36 60 61 287q9 77 13 157q-103 -12 -138 -26q-61 -23 -138 -113l-45 38l106 204q35 66 91 93q55 27 139 27h918z" />
    <glyph glyph-name="integral" unicode="&#x222b;" 
d="M729 1219v-1270q0 -130 -5 -163q-22 -144 -160 -225q-121 -70 -322 -70q-187 0 -300 66q-59 33 -92.5 89t-33.5 119q0 84 60 142q56 54 135 54q77 0 134 -55q56 -53 56 -120q0 -43 -24 -80q-6 -9 -40 -46q-16 -17 -16 -35q0 -26 26 -45q27 -20 62 -20q51 0 73 39
q13 22 13 100v1380q0 142 5 175q23 144 161 225q120 70 321 70q187 0 300 -66q58 -33 92 -89t34 -119q0 -84 -60 -142q-56 -54 -135 -54q-77 0 -134 54q-56 54 -56 121q0 42 24 79q6 10 41 46q16 18 16 35q0 26 -26 45q-28 20 -63 20q-88 0 -88 -106q0 -1 1 -72q1 -51 1 -82
z" />
    <glyph glyph-name="ordfeminine" unicode="&#xaa;" horiz-adv-x="835" 
d="M792 857l16 -20q-129 -102 -221 -102q-107 0 -132 103q-84 -103 -225 -103q-93 0 -147 48q-42 37 -42 91q0 64 61 110q83 63 348 137v58q0 108 -15 133q-18 28 -51 28q-49 0 -74 -35q-16 -23 -23 -78q-11 -80 -31 -107q-43 -59 -116 -59q-42 0 -70 26q-27 25 -27 65
q0 78 113 140q75 41 177.5 67t188.5 26q169 0 169 -174v-278q0 -57 7 -73q10 -22 40 -22q19 0 54 19zM450 1093q-52 -17 -79 -36q-55 -37 -55 -120q0 -106 66 -106q29 0 49 22q19 21 19 62v178z" />
    <glyph glyph-name="ordmasculine" unicode="&#xba;" horiz-adv-x="745" 
d="M377 1385q133 0 236 -82q119 -95 119 -244q0 -147 -120 -243q-102 -82 -239 -82q-138 0 -240 82q-119 96 -119 243q0 150 119 244q105 82 244 82zM371 1355q-57 0 -75 -67q-20 -77 -20 -229q0 -151 20 -228q18 -67 77 -67t77 67q20 78 20 224q0 160 -20 233
q-19 67 -79 67z" />
    <glyph glyph-name="Omega" unicode="&#x2126;" horiz-adv-x="1365" 
d="M1481 374l-77 -374h-639v220q93 75 133 157q74 149 74 411q0 225 -59 345q-77 159 -231 159q-161 0 -236 -181q-51 -124 -51 -339q0 -273 89 -425q38 -64 118 -127v-220h-643l-76 374h49q28 -94 95 -126q44 -21 121 -23q51 -1 62 -2l234 -20v20q-113 32 -176 60.5
t-124 73.5q-226 170 -226 435q0 194 127 345q210 250 633 250q404 0 607 -209q164 -170 164 -384q0 -156 -76.5 -280.5t-220.5 -202.5q-77 -42 -229 -88v-20l272 23q77 3 107 9q73 18 109 88q8 13 21 51h49z" />
    <glyph glyph-name="ae" unicode="&#xe6;" horiz-adv-x="1827" 
d="M1767 603h-671q0 -142 54 -235q86 -145 278 -145q135 0 234 67q49 34 105 107l19 -8q-69 -154 -133 -236q-141 -180 -400 -180q-233 0 -390 155q-165 -72 -240 -97q-174 -58 -294 -58q-109 0 -189 57q-85 60 -85 164q0 101 97 180q131 106 559 232v107q0 160 -26 223
q-26 60 -101 60q-84 0 -126 -66q-25 -39 -39 -151q-11 -85 -22 -114q-52 -142 -195 -142q-62 0 -101 37q-43 39 -43 104q0 88 74 158q75 71 246 139q223 90 406 90q80 0 141 -25q36 -15 78 -56q144 81 274 81q143 0 271 -79q202 -126 219 -369zM711 583q-131 -46 -177 -93
q-68 -69 -68 -249q0 -98 25 -146q25 -46 86 -46q67 0 106 50q21 26 24 56q4 31 4 97v331zM1410 627q-2 157 -11 225q-24 172 -128 172q-171 0 -175 -397h314z" />
    <glyph glyph-name="oslash" unicode="&#xf8;" horiz-adv-x="1227" 
d="M282 66l-83 -114h-31l94 129q-214 167 -214 424q0 245 187 403q161 137 377 137q161 0 292 -75l86 119h31l-95 -132q110 -76 161 -149q93 -131 93 -303q0 -244 -187 -403q-161 -136 -380 -136q-176 0 -331 100zM451 300q7 -115 26 -186q33 -121 137 -121q73 0 113 66
q57 91 57 453q0 104 -10 235zM771 785q-9 70 -21 111q-34 122 -136 122q-72 0 -113 -66q-57 -91 -57 -425q0 -21 5 -187z" />
    <glyph glyph-name="questiondown" unicode="&#xbf;" horiz-adv-x="1168" 
d="M548 925q18 23 33 23q24 0 36 -30q10 -22 10 -45q0 -50 -57 -148q-124 -210 -124 -413q0 -135 71 -224q60 -76 162 -76q58 0 96 27t38 79q0 46 -49 140q-32 62 -32 118q0 75 46 125q54 58 143 58q84 0 134 -61q45 -55 45 -132q0 -118 -92 -220q-78 -87 -199 -133
q-106 -41 -228 -41q-198 0 -370 87q-84 42 -130.5 108t-46.5 143q0 142 140 244q53 38 215 118q106 52 159 98q52 45 52 94q0 27 -14 43q-8 9 -38 18zM568 1394q79 0 137 -58q58 -57 58 -139t-58 -139q-57 -58 -139 -58t-139 58q-58 57 -58 139q0 83 58 139q59 58 141 58z
" />
    <glyph glyph-name="exclamdown" unicode="&#xa1;" horiz-adv-x="594" 
d="M248 953h20q5 -80 27 -149q22 -65 74 -165q26 -50 75 -150q54 -111 54 -185q0 -173 -230 -331q-99 74 -140 121q-87 100 -87 198q0 93 85 283q62 137 86 204q29 79 36 174zM271 1435q80 0 137 -58q58 -57 58 -139q0 -81 -58 -139q-57 -58 -139 -58t-139 58
q-58 57 -58 139q0 83 58 139q59 58 141 58z" />
    <glyph glyph-name="logicalnot" unicode="&#xac;" 
d="M542 0v365h-490v182h919v-547h-429z" />
    <glyph glyph-name="radical" unicode="&#x221a;" horiz-adv-x="1365" 
d="M1331 1686v-93h-211l-379 -1593h-361l-170 700h-176v93h468l161 -690l372 1583h296z" />
    <glyph glyph-name="florin" unicode="&#x192;" horiz-adv-x="1229" 
d="M890 1025l-73 -96h-171l-165 -848q-37 -190 -97 -265q-85 -107 -227 -166q-126 -53 -264 -53q-142 0 -240 48t-98 148q0 69 46 119q57 61 147 61q77 0 114 -55q23 -34 23 -77q0 -30 -14 -80q-12 -45 -12 -68q0 -69 73 -69q59 0 91 48q24 36 46 148l215 1109h-119l291 296
q177 181 281 251q80 53 194 53q141 0 228 -64t87 -161q0 -86 -66 -142q-54 -46 -127 -46q-78 0 -118 52q-24 33 -24 82q0 36 10 102q8 50 8 74q0 74 -56 74q-51 0 -97 -55q-39 -47 -59 -148l-53 -272h226z" />
    <glyph glyph-name="approxequal" unicode="&#x2248;" 
d="M912 1087l72 -35q-53 -90 -142 -176q-38 -37 -70 -51q-50 -23 -124 -23q-45 0 -100 14q-33 9 -126 40q-75 24 -143 24t-113 -31q-10 -6 -34 -26q-7 -6 -22 -19l-69 35q89 136 149 185q83 66 173 66q57 0 188 -39q137 -41 198 -41q84 0 163 77zM912 728l72 -36
q-52 -88 -142 -175q-38 -37 -70 -51q-50 -23 -124 -23q-45 0 -100 14q-35 9 -126 39q-75 24 -144 24q-66 0 -112 -31q-10 -6 -34 -26q-7 -6 -22 -18l-69 35q89 136 149 184q83 66 173 66q56 0 188 -38q137 -40 198 -40q83 0 163 76z" />
    <glyph glyph-name="Delta" unicode="&#x2206;" horiz-adv-x="1365" 
d="M798 1384l625 -1384h-1482l618 1384h239zM547 1028l-303 -695q-21 -48 -21 -69q0 -25 25 -34q18 -6 85 -6h551z" />
    <glyph glyph-name="guillemotleft" unicode="&#xab;" horiz-adv-x="634" 
d="M585 834l8 -21l-144 -297l144 -298l-8 -21l-331 319zM330 841l8 -21l-144 -298l144 -297l-8 -21l-330 318z" />
    <glyph glyph-name="guillemotright" unicode="&#xbb;" horiz-adv-x="634" 
d="M49 834l330 -318l-330 -319l-8 21l144 298l-144 297zM304 841l330 -319l-330 -318l-9 21l145 297l-145 298z" />
    <glyph glyph-name="ellipsis" unicode="&#x2026;" horiz-adv-x="1816" 
d="M240 380q80 0 137 -58q58 -57 58 -139t-58 -139q-57 -58 -139 -58t-139 58q-58 57 -58 139q0 83 58 139q59 58 141 58zM909 380q80 0 137 -58q58 -57 58 -139t-58 -139q-57 -58 -139 -58t-139 58q-58 57 -58 139q0 83 58 139q59 58 141 58zM1579 380q79 0 136 -58
q58 -57 58 -139t-58 -139q-57 -58 -139 -58t-139 58q-58 58 -58 139q0 83 58 139q59 58 142 58z" />
    <glyph glyph-name="glyph172" horiz-adv-x="1229" 
 />
    <glyph glyph-name="Agrave" unicode="&#xc0;" horiz-adv-x="1625" 
d="M854 523h-413q-52 -140 -52 -248q0 -124 67 -195q53 -55 136 -60v-20h-633v20q135 19 260 164q114 136 195 349l207 545q-32 62 -80 108q87 42 197 142q82 77 151 160q56 -153 106 -275l264 -637q175 -408 210 -441q55 -80 124 -104q27 -8 73 -11v-20h-827v20
q146 6 146 114q0 80 -86 283zM847 547l-210 508l-189 -508h399zM953 1495l-20 -20l-100 56q-57 30 -153 59q-85 27 -123 57q-46 36 -46 91q0 49 34 85q33 34 82 34q59 0 106 -52q28 -31 75 -119q20 -35 58 -82z" />
    <glyph glyph-name="Atilde" unicode="&#xc3;" horiz-adv-x="1625" 
d="M854 523h-413q-52 -140 -52 -248q0 -124 67 -195q53 -55 136 -60v-20h-633v20q135 19 260 164q114 136 195 349l207 545q-32 62 -80 108q87 42 197 142q82 77 151 160q56 -153 106 -275l264 -637q175 -408 210 -441q55 -80 124 -104q27 -8 73 -11v-20h-827v20
q146 6 146 114q0 80 -86 283zM847 547l-210 508l-189 -508h399zM1165 1770h23q-18 -93 -60 -151q-61 -85 -150 -85q-59 0 -203 44q-163 51 -209 51q-68 0 -106 -88h-23q14 98 56 162q63 95 161 95q47 0 118 -21q12 -3 106 -33q146 -45 204 -45q35 0 57 26q11 13 26 45z" />
    <glyph glyph-name="Otilde" unicode="&#xd5;" horiz-adv-x="1584" 
d="M801 1392q262 0 476 -173q260 -210 260 -537q0 -325 -260 -536q-213 -173 -485 -173t-485 173q-259 211 -259 535q0 332 259 538q219 173 494 173zM787 1365q-101 0 -173 -78q-122 -132 -122 -605q0 -340 70 -520q30 -80 102 -127q54 -35 129 -35q107 0 178 78
q122 132 122 597q0 355 -69 528q-32 78 -93 120t-144 42zM1145 1770h23q-18 -93 -60 -151q-61 -85 -150 -85q-59 0 -203 44q-163 51 -209 51q-68 0 -106 -88h-23q14 98 56 162q63 95 161 95q47 0 118 -21q12 -3 106 -33q146 -45 204 -45q35 0 57 26q11 13 26 45z" />
    <glyph glyph-name="OE" unicode="&#x152;" horiz-adv-x="2219" 
d="M1412 1341v-630q153 10 256 92q97 82 113 209h20v-631h-20q-28 132 -130 224q-63 55 -143 73q-31 7 -96 11v-485q0 -106 25 -141q27 -39 95 -39q194 0 384 165q177 153 262 393h21l-93 -582h-1111q-155 -27 -225 -27q-214 0 -405 121q-324 205 -324 580q0 328 242 533
q104 88 236 136.5t268 48.5q98 0 208 -27h1030l83 -470h-21q-67 168 -209 300q-165 146 -408 146h-58zM1009 418v688q0 108 -24 153q-32 59 -99 87q-45 19 -95 19q-157 0 -225 -167q-81 -201 -81 -534q0 -353 67 -521q57 -143 230 -143q152 0 203 128q24 59 24 290z" />
    <glyph glyph-name="oe" unicode="&#x153;" horiz-adv-x="1915" 
d="M1856 610h-677q3 -140 54 -232q83 -148 282 -148q222 0 341 181l19 -8q-79 -197 -163 -281q-148 -149 -373 -149q-203 0 -356 128q-172 -129 -362 -129q-168 0 -318 92q-133 82 -200 212q-55 107 -55 232q0 248 197 411q159 133 368 133q127 0 239 -50q64 -28 145 -90
q85 68 142 94q100 46 221 46q144 0 265 -72q128 -75 189 -214q26 -59 42 -156zM611 1025q-52 0 -89.5 -39t-51.5 -109q-26 -121 -26 -360q0 -249 25 -369q14 -70 52.5 -109t93.5 -39q114 0 145 148q26 123 26 353q0 262 -26 376q-33 148 -149 148zM1494 634q0 134 -16 228
q-16 87 -44 123q-30 40 -84 40q-120 0 -153 -178q-17 -92 -17 -213h314z" />
    <glyph glyph-name="endash" unicode="&#x2013;" horiz-adv-x="1440" 
d="M1358 597v-157h-1276v157h1276z" />
    <glyph glyph-name="emdash" unicode="&#x2014;" horiz-adv-x="1611" 
d="M1611 597v-157h-1611v157h1611z" />
    <glyph glyph-name="quotedblleft" unicode="&#x201c;" horiz-adv-x="890" 
d="M662 1543l18 -10q-51 -70 -51 -147q0 -43 17 -73q17 -31 74 -61q68 -35 92 -63q38 -44 38 -111q0 -69 -43 -121q-55 -65 -142 -65t-144 67q-55 64 -55 158q0 128 82 269q55 94 114 157zM238 1543l18 -10q-52 -70 -52 -147q0 -43 17 -73q17 -31 74 -61q68 -35 92 -63
q38 -44 38 -111q0 -69 -43 -121q-55 -65 -142 -65t-144 67q-55 64 -55 158q0 128 82 269q55 93 115 157z" />
    <glyph glyph-name="quotedblright" unicode="&#x201d;" horiz-adv-x="890" 
d="M228 892l-18 10q52 69 52 146q0 43 -17 74t-74 60q-69 36 -92 63q-38 45 -38 112q0 69 43 121q55 65 142 65t144 -67q55 -64 55 -158q0 -129 -82 -270q-55 -93 -115 -156zM653 892l-18 10q52 69 52 146q0 43 -17 74t-74 60q-69 36 -92 63q-38 45 -38 112q0 69 43 121
q55 65 142 65t144 -67q55 -64 55 -158q0 -129 -83 -269q-55 -95 -114 -157z" />
    <glyph glyph-name="quoteleft" unicode="&#x2018;" horiz-adv-x="466" 
d="M238 1543l18 -10q-52 -70 -52 -147q0 -43 17 -73q17 -31 74 -61q68 -35 92 -63q38 -44 38 -111q0 -69 -43 -121q-55 -65 -142 -65t-144 67q-55 64 -55 158q0 128 82 269q55 93 115 157z" />
    <glyph glyph-name="quoteright" unicode="&#x2019;" horiz-adv-x="466" 
d="M228 892l-18 10q52 69 52 146q0 43 -17 74t-74 60q-69 36 -92 63q-38 45 -38 112q0 69 43 121q55 65 142 65t144 -67q55 -64 55 -158q0 -129 -82 -270q-55 -93 -115 -156z" />
    <glyph glyph-name="divide" unicode="&#xf7;" horiz-adv-x="1133" 
d="M20 703h1092v-41h-1092v41zM568 1229q56 0 95 -40q40 -39 40 -96q0 -58 -40 -97q-40 -40 -96 -40q-57 0 -97 40t-40 96q0 58 40 97q40 40 98 40zM568 410q56 0 95 -40q40 -39 40 -96q0 -58 -40 -97q-40 -40 -96 -40q-57 0 -97 40t-40 96q0 58 40 97q40 40 98 40z" />
    <glyph glyph-name="lozenge" unicode="&#x25ca;" horiz-adv-x="1365" 
d="M683 1419l531 -736l-531 -736l-532 736zM683 1238l-404 -555l404 -554l403 554z" />
    <glyph glyph-name="ydieresis" unicode="&#xff;" horiz-adv-x="1217" 
d="M774 380q57 113 89 187q58 133 58 252q0 83 -34 129q-28 39 -94 56v20h465v-20q-82 -20 -145 -89q-97 -110 -198 -311l-361 -728q-151 -306 -366 -306q-104 0 -174 58q-66 54 -66 148q0 77 51 127q53 51 130 51q58 0 100 -29q30 -20 69 -70q54 -71 98 -71q68 0 120 81
q20 32 62 116l-408 829q-48 96 -63 116q-37 48 -80 65q-22 8 -68 13v20h671v-20q-90 -7 -90 -88q0 -56 44 -147zM390 1490q66 0 113 -48q48 -47 48 -115t-48 -115q-48 -48 -115 -48q-68 0 -115 48q-48 48 -48 115q0 68 48 115q48 48 117 48zM830 1490q66 0 113 -48
q48 -47 48 -115t-48 -115q-48 -48 -115 -48t-115 48q-48 47 -48 115q0 69 48 115q49 48 117 48z" />
    <glyph glyph-name="Ydieresis" unicode="&#x178;" horiz-adv-x="1551" 
d="M969 642v-291q0 -157 10 -212q16 -78 80 -101q37 -13 101 -18v-20h-785v20q116 7 154 58q28 37 34 118q3 29 3 155v203l-337 559q-77 127 -138 178q-50 41 -132 54v20h794v-20q-109 -13 -109 -100q0 -70 75 -193l234 -387l69 112q138 224 138 396q0 79 -27 125
q-19 33 -62 47v20h521v-20q-75 -21 -126 -54q-86 -58 -222 -231q-102 -130 -172 -246zM604 1846q72 0 125 -52q52 -53 52 -127q0 -75 -52 -127q-53 -53 -127 -53q-75 0 -127 53q-53 52 -53 126q0 76 53 128t129 52zM1088 1846q72 0 125 -52q52 -53 52 -127q0 -75 -52 -127
q-53 -53 -127 -53q-75 0 -127 53q-53 52 -53 126q0 76 53 128t129 52z" />
    <glyph glyph-name="fraction" unicode="&#x2215;" horiz-adv-x="122" 
d="M450 1365h55l-832 -1365h-55z" />
    <glyph glyph-name="currency" unicode="&#xa4;" horiz-adv-x="1133" 
d="M331 418l-184 -184l-29 29l184 184q-90 104 -90 236q0 130 90 236l-184 184l29 29l184 -184q104 90 236 90t236 -90l184 184l29 -29l-184 -184q90 -104 90 -236q0 -131 -90 -237l184 -183l-29 -29l-184 184q-104 -90 -236 -90q-131 0 -236 90zM563 1001q-127 0 -221 -93
q-93 -93 -93 -225q0 -131 93 -225q93 -93 225 -93t225 93t93 225q0 134 -93 225q-96 93 -229 93z" />
    <glyph glyph-name="guilsinglleft" unicode="&#x2039;" horiz-adv-x="379" 
d="M330 837l8 -20l-144 -298l144 -298l-8 -21l-330 319z" />
    <glyph glyph-name="guilsinglright" unicode="&#x203a;" horiz-adv-x="379" 
d="M49 837l330 -318l-330 -319l-8 21l144 298l-144 298z" />
    <glyph glyph-name="fi" unicode="&#xf001;" horiz-adv-x="1333" 
d="M540 928v-666q0 -142 19 -179q24 -49 86 -63v-20h-631v20q101 4 134 45q22 30 27 94q3 24 3 103v666h-119l233 298q148 189 239 250q78 53 211 53q159 0 269 -62q132 -74 132 -200q0 -68 -47 -113q-46 -44 -121 -44q-116 0 -163 91q-20 38 -25 152q-4 81 -20 107
q-23 40 -82 40q-77 0 -115 -55q-30 -43 -30 -148v-273h428q127 1 201 27v-789q0 -105 7 -148q11 -59 57 -79q29 -12 86 -15v-20h-594v20q50 17 69 73q13 45 13 169v392q0 108 -13 158q-16 60 -55 88t-106 28h-93z" />
    <glyph glyph-name="fl" unicode="&#xf002;" horiz-adv-x="1319" 
d="M540 1024h225l-55 -96h-170v-666q0 -143 19 -179q25 -51 86 -63v-20h-631v20q101 4 134 45q22 30 27 94q3 24 3 103v666h-119l233 298q147 187 233 250q73 53 187 53q64 0 120 -13l84 -19q31 -7 55 -7q45 0 198 53v-1281q0 -104 8 -148q10 -59 56 -79q30 -12 86 -15v-20
h-580v20q28 15 40 30q30 29 28 212v841l-2 88q-5 194 -22 240q-26 69 -104 69q-76 0 -111 -55q-28 -46 -28 -148v-273z" />
    <glyph glyph-name="daggerdbl" unicode="&#x2021;" horiz-adv-x="898" 
d="M435 900q-14 63 -72 146q-36 52 -53 84q-22 44 -22 90q0 72 43 121q45 51 119 51q73 0 118 -51q43 -49 43 -121q0 -46 -22 -90q-16 -31 -53 -84q-58 -84 -72 -146q79 8 190 86q59 39 106 39q62 0 99 -51q26 -37 26 -87q0 -51 -26 -88q-37 -51 -98 -51q-41 0 -89 28
q-9 5 -55 36q-88 55 -154 61q3 -50 28.5 -114t100.5 -212q-10 -19 -42 -80q-78 -150 -87 -250q79 8 191 86q59 39 106 39q62 0 99 -51q26 -37 26 -88q0 -50 -26 -87q-37 -51 -98 -51q-41 0 -89 28q-9 5 -55 36q-86 54 -152 61q14 -71 71 -166q37 -62 53 -98q22 -52 22 -106
q0 -90 -43 -156q-44 -66 -118 -66q-75 0 -119 66q-43 66 -43 156q0 54 22 106q17 37 53 98q62 102 70 165q-15 -3 -19 -3q-65 -9 -169 -82q-58 -39 -106 -39q-62 0 -99 51q-26 37 -26 87q0 51 26 88q37 51 99 51q40 0 88 -28q9 -5 55 -36q88 -55 154 -61q-8 63 -44 159
q-13 34 -58 114q-18 30 -39 57q25 33 55 87.5t47 97.5q39 110 39 141q-16 -4 -21 -5q-64 -8 -170 -81q-58 -39 -106 -39q-62 0 -99 51q-26 37 -26 88q0 50 26 87q37 51 99 51q40 0 88 -28q9 -5 55 -36q82 -50 153 -61z" />
    <glyph glyph-name="periodcentered" unicode="&#x2219;" horiz-adv-x="478" 
d="M240 717q80 0 137 -58q58 -57 58 -139t-58 -139q-57 -58 -139 -58t-139 58q-58 57 -58 139q0 83 58 139q59 58 141 58z" />
    <glyph glyph-name="quotesinglbase" unicode="&#x201a;" horiz-adv-x="466" 
d="M228 -310l-18 10q52 69 52 147q0 43 -17 73q-17 31 -74 61q-68 35 -92 63q-38 44 -38 111q0 69 43 121q55 65 142 65t144 -67q55 -64 55 -158q0 -129 -82 -269q-55 -94 -115 -157z" />
    <glyph glyph-name="quotedblbase" unicode="&#x201e;" horiz-adv-x="890" 
d="M228 -310l-18 10q52 69 52 147q0 43 -17 73q-17 31 -74 61q-68 35 -92 63q-38 44 -38 111q0 69 43 121q55 65 142 65t144 -67q55 -64 55 -158q0 -129 -82 -269q-55 -94 -115 -157zM653 -310l-18 10q52 70 52 147q0 43 -17 73q-17 31 -74 61q-68 35 -92 63q-38 44 -38 111
q0 69 43 121q55 65 142 65t144 -67q55 -64 55 -158q0 -128 -83 -269q-55 -94 -114 -157z" />
    <glyph glyph-name="perthousand" unicode="&#x2030;" horiz-adv-x="1737" 
d="M989 1495h28l-938 -1556h-28l835 1391q-107 -84 -198 -84q-71 0 -158 41q68 -86 68 -200q0 -109 -60 -189q-39 -53 -98 -84t-120 -31q-62 0 -121 31t-98 84q-60 80 -60 189q0 110 60 190q39 53 98 84t121 31q95 0 185 -78q79 -33 169 -33q80 0 147 29q68 30 102 83z
M316 1365q-42 0 -64 -76q-26 -89 -26 -202q0 -110 26 -200q22 -77 65 -77t65 77q26 89 26 198q0 120 -26 204q-23 76 -66 76zM739 582q59 0 117 -31t97 -84q60 -80 60 -190q0 -109 -60 -189q-39 -53 -97.5 -84t-120.5 -31t-120.5 31t-97.5 84q-60 80 -60 189q0 112 60 190
q87 115 222 115zM731 555q-42 0 -63 -76q-26 -90 -26 -202q0 -110 26 -200q21 -77 65 -77q43 0 65 77q25 89 25 198q0 119 -25 204q-23 76 -67 76zM1422 582q59 0 117 -31t97 -84q60 -80 60 -190q0 -109 -60 -189q-39 -53 -97.5 -84t-120.5 -31t-120.5 31t-97.5 84
q-60 80 -60 189q0 112 60 190q87 115 222 115zM1414 555q-42 0 -64 -76q-25 -89 -25 -202q0 -110 25 -200q22 -77 65 -77q44 0 66 77q25 89 25 198q0 119 -25 204q-23 76 -67 76z" />
    <glyph glyph-name="Acircumflex" unicode="&#xc2;" horiz-adv-x="1625" 
d="M854 523h-413q-52 -140 -52 -248q0 -124 67 -195q53 -55 136 -60v-20h-633v20q135 19 260 164q114 136 195 349l207 545q-32 62 -80 108q87 42 197 142q82 77 151 160q56 -153 106 -275l264 -637q175 -408 210 -441q55 -80 124 -104q27 -8 73 -11v-20h-827v20
q146 6 146 114q0 80 -86 283zM847 547l-210 508l-189 -508h399zM1188 1531l-15 -18l-361 117l-360 -117l-15 18l307 287h137z" />
    <glyph glyph-name="Ecircumflex" unicode="&#xca;" horiz-adv-x="1415" 
d="M608 1341v-630q153 10 256 92q97 82 113 209h20v-631h-20q-28 132 -130 224q-63 55 -143 73q-31 7 -96 11v-485q0 -106 25 -141q27 -39 95 -39q194 0 384 165q177 153 262 393h21l-93 -582h-1288v20q116 7 154 58q28 37 34 118q3 28 3 155v663q0 157 -10 212
q-16 78 -80 101q-37 13 -101 18v20h1207l83 -470h-21q-67 168 -209 300q-165 146 -408 146h-58zM1084 1531l-15 -18l-361 117l-360 -117l-15 18l307 287h137z" />
    <glyph glyph-name="Aacute" unicode="&#xc1;" horiz-adv-x="1625" 
d="M854 523h-413q-52 -140 -52 -248q0 -124 67 -195q53 -55 136 -60v-20h-633v20q135 19 260 164q114 136 195 349l207 545q-32 62 -80 108q87 42 197 142q82 77 151 160q56 -153 106 -275l264 -637q175 -408 210 -441q55 -80 124 -104q27 -8 73 -11v-20h-827v20
q146 6 146 114q0 80 -86 283zM847 547l-210 508l-189 -508h399zM686 1495l87 109q45 58 86 135q64 118 153 118q49 0 82 -34q34 -36 34 -85q0 -55 -46 -91q-38 -30 -123 -57q-97 -29 -154 -59l-99 -56z" />
    <glyph glyph-name="Edieresis" unicode="&#xcb;" horiz-adv-x="1415" 
d="M608 1341v-630q153 10 256 92q97 82 113 209h20v-631h-20q-28 132 -130 224q-63 55 -143 73q-31 7 -96 11v-485q0 -106 25 -141q27 -39 95 -39q194 0 384 165q177 153 262 393h21l-93 -582h-1288v20q116 7 154 58q28 37 34 118q3 28 3 155v663q0 157 -10 212
q-16 78 -80 101q-37 13 -101 18v20h1207l83 -470h-21q-67 168 -209 300q-165 146 -408 146h-58zM468 1846q72 0 125 -52q52 -53 52 -127q0 -75 -52 -127q-53 -53 -127 -53q-75 0 -127 53q-53 52 -53 126q0 76 53 128t129 52zM952 1846q72 0 125 -52q52 -53 52 -127
q0 -75 -52 -127q-53 -53 -127 -53q-75 0 -127 53q-53 52 -53 126q0 76 53 128t129 52z" />
    <glyph glyph-name="Egrave" unicode="&#xc8;" horiz-adv-x="1415" 
d="M608 1341v-630q153 10 256 92q97 82 113 209h20v-631h-20q-28 132 -130 224q-63 55 -143 73q-31 7 -96 11v-485q0 -106 25 -141q27 -39 95 -39q194 0 384 165q177 153 262 393h21l-93 -582h-1288v20q116 7 154 58q28 37 34 118q3 28 3 155v663q0 157 -10 212
q-16 78 -80 101q-37 13 -101 18v20h1207l83 -470h-21q-67 168 -209 300q-165 146 -408 146h-58zM834 1495l-20 -20l-100 56q-57 30 -153 59q-85 27 -123 57q-46 36 -46 91q0 49 34 85q33 34 82 34q59 0 106 -52q28 -31 75 -119q20 -35 58 -82z" />
    <glyph glyph-name="Iacute" unicode="&#xcd;" horiz-adv-x="812" 
d="M205 351v663q0 156 -10 212q-16 78 -80 101q-37 13 -101 18v20h785v-20q-116 -7 -154 -57q-27 -38 -34 -119q-3 -29 -3 -155v-663q0 -156 10 -212q16 -78 80 -101q37 -13 101 -18v-20h-785v20q116 7 154 58q28 37 34 118q3 29 3 155zM280 1495l87 109q45 58 86 135
q64 118 153 118q49 0 82 -34q34 -36 34 -85q0 -55 -46 -91q-38 -30 -123 -57q-97 -29 -154 -59l-99 -56z" />
    <glyph glyph-name="Icircumflex" unicode="&#xce;" horiz-adv-x="812" 
d="M205 351v663q0 156 -10 212q-16 78 -80 101q-37 13 -101 18v20h785v-20q-116 -7 -154 -57q-27 -38 -34 -119q-3 -29 -3 -155v-663q0 -156 10 -212q16 -78 80 -101q37 -13 101 -18v-20h-785v20q116 7 154 58q28 37 34 118q3 29 3 155zM782 1531l-15 -18l-361 117
l-360 -117l-15 18l307 287h137z" />
    <glyph glyph-name="Idieresis" unicode="&#xcf;" horiz-adv-x="812" 
d="M205 351v663q0 156 -10 212q-16 78 -80 101q-37 13 -101 18v20h785v-20q-116 -7 -154 -57q-27 -38 -34 -119q-3 -29 -3 -155v-663q0 -156 10 -212q16 -78 80 -101q37 -13 101 -18v-20h-785v20q116 7 154 58q28 37 34 118q3 29 3 155zM180 1846q72 0 125 -52
q52 -53 52 -127q0 -75 -52 -127q-53 -53 -127 -53q-75 0 -127 53q-53 52 -53 126q0 76 53 128t129 52zM637 1846q72 0 124 -52q53 -53 53 -127q0 -75 -53 -127q-52 -53 -126 -53q-75 0 -127 53q-53 53 -53 126q0 76 53 128t129 52z" />
    <glyph glyph-name="Igrave" unicode="&#xcc;" horiz-adv-x="812" 
d="M205 351v663q0 156 -10 212q-16 78 -80 101q-37 13 -101 18v20h785v-20q-116 -7 -154 -57q-27 -38 -34 -119q-3 -29 -3 -155v-663q0 -156 10 -212q16 -78 80 -101q37 -13 101 -18v-20h-785v20q116 7 154 58q28 37 34 118q3 29 3 155zM533 1495l-20 -20l-100 56
q-57 30 -153 59q-85 27 -123 57q-46 36 -46 91q0 49 34 85q33 34 82 34q59 0 106 -52q28 -31 75 -119q20 -35 58 -82z" />
    <glyph glyph-name="Oacute" unicode="&#xd3;" horiz-adv-x="1584" 
d="M801 1392q262 0 476 -173q260 -210 260 -537q0 -325 -260 -536q-213 -173 -485 -173t-485 173q-259 211 -259 535q0 332 259 538q219 173 494 173zM787 1365q-101 0 -173 -78q-122 -132 -122 -605q0 -340 70 -520q30 -80 102 -127q54 -35 129 -35q107 0 178 78
q122 132 122 597q0 355 -69 528q-32 78 -93 120t-144 42zM666 1495l87 109q45 58 86 135q64 118 153 118q49 0 82 -34q34 -36 34 -85q0 -55 -46 -91q-38 -30 -123 -57q-97 -29 -154 -59l-99 -56z" />
    <glyph glyph-name="Ocircumflex" unicode="&#xd4;" horiz-adv-x="1584" 
d="M801 1392q262 0 476 -173q260 -210 260 -537q0 -325 -260 -536q-213 -173 -485 -173t-485 173q-259 211 -259 535q0 332 259 538q219 173 494 173zM787 1365q-101 0 -173 -78q-122 -132 -122 -605q0 -340 70 -520q30 -80 102 -127q54 -35 129 -35q107 0 178 78
q122 132 122 597q0 355 -69 528q-32 78 -93 120t-144 42zM1168 1531l-15 -18l-361 117l-360 -117l-15 18l307 287h137z" />
    <glyph glyph-name="apple" unicode="&#xf000;" horiz-adv-x="1365" 
d="M984 1416v-20q0 -162 -127 -266q-80 -65 -146 -68q-13 -1 -31 -1q0 141 82 239q91 104 222 116zM1277 935q-65 -49 -98 -92q-67 -84 -67 -192q0 -150 111 -250q34 -31 92 -56q-65 -161 -139 -256q-110 -143 -208 -143q-39 0 -82 18l-83 34q-17 7 -75 7q-73 0 -98 -10
l-87 -35q-41 -17 -79 -17q-54 0 -113.5 43.5t-112.5 123.5q-172 256 -172 526q0 176 100 306q103 135 281 135q67 0 160 -36q68 -26 101 -26q31 0 85 21q71 27 101 35q36 10 87 10q189 0 296 -146z" />
    <glyph glyph-name="Ograve" unicode="&#xd2;" horiz-adv-x="1584" 
d="M801 1392q262 0 476 -173q260 -210 260 -537q0 -325 -260 -536q-213 -173 -485 -173t-485 173q-259 211 -259 535q0 332 259 538q219 173 494 173zM787 1365q-101 0 -173 -78q-122 -132 -122 -605q0 -340 70 -520q30 -80 102 -127q54 -35 129 -35q107 0 178 78
q122 132 122 597q0 355 -69 528q-32 78 -93 120t-144 42zM919 1495l-20 -20l-100 56q-57 30 -153 59q-85 27 -123 57q-46 36 -46 91q0 49 34 85q33 34 82 34q59 0 106 -52q28 -31 75 -119q20 -35 58 -82z" />
    <glyph glyph-name="Uacute" unicode="&#xda;" horiz-adv-x="1543" 
d="M1584 1365v-20q-75 -15 -123 -62q-72 -74 -106.5 -235.5t-34.5 -424.5v-157q0 -184 -45 -273q-113 -220 -477 -220q-295 0 -462 114q-96 65 -123 167q-22 79 -22 218v542q0 156 -10 212q-16 78 -80 101q-37 13 -101 18v20h771v-20q-107 -7 -143 -57q-25 -38 -31 -119
q-3 -30 -3 -155v-477q0 -193 15 -267q25 -128 129 -184q83 -44 192 -44q210 0 300 131q41 60 55 139q8 49 8 154v188q2 310 -50 489q-33 111 -99 162q-29 21 -79 40v20h519zM713 1495l87 109q45 58 86 135q64 118 153 118q49 0 82 -34q34 -36 34 -85q0 -55 -46 -91
q-38 -30 -123 -57q-97 -29 -154 -59l-99 -56z" />
    <glyph glyph-name="Ucircumflex" unicode="&#xdb;" horiz-adv-x="1543" 
d="M1584 1365v-20q-75 -15 -123 -62q-72 -74 -106.5 -235.5t-34.5 -424.5v-157q0 -184 -45 -273q-113 -220 -477 -220q-295 0 -462 114q-96 65 -123 167q-22 79 -22 218v542q0 156 -10 212q-16 78 -80 101q-37 13 -101 18v20h771v-20q-107 -7 -143 -57q-25 -38 -31 -119
q-3 -30 -3 -155v-477q0 -193 15 -267q25 -128 129 -184q83 -44 192 -44q210 0 300 131q41 60 55 139q8 49 8 154v188q2 310 -50 489q-33 111 -99 162q-29 21 -79 40v20h519zM1215 1531l-15 -18l-361 117l-360 -117l-15 18l307 287h137z" />
    <glyph glyph-name="Ugrave" unicode="&#xd9;" horiz-adv-x="1543" 
d="M1584 1365v-20q-75 -15 -123 -62q-72 -74 -106.5 -235.5t-34.5 -424.5v-157q0 -184 -45 -273q-113 -220 -477 -220q-295 0 -462 114q-96 65 -123 167q-22 79 -22 218v542q0 156 -10 212q-16 78 -80 101q-37 13 -101 18v20h771v-20q-107 -7 -143 -57q-25 -38 -31 -119
q-3 -30 -3 -155v-477q0 -193 15 -267q25 -128 129 -184q83 -44 192 -44q210 0 300 131q41 60 55 139q8 49 8 154v188q2 310 -50 489q-33 111 -99 162q-29 21 -79 40v20h519zM966 1495l-20 -20l-100 56q-57 30 -153 59q-85 27 -123 57q-46 36 -46 91q0 49 34 85q33 34 82 34
q59 0 106 -52q28 -31 75 -119q20 -35 58 -82z" />
    <glyph glyph-name="dotlessi" unicode="&#x131;" horiz-adv-x="703" 
d="M2 872l-2 21q331 76 539 158v-789q1 -105 8 -148q10 -59 56 -79q30 -12 86 -15v-20h-662v20q92 4 123 45q20 29 25 94q2 25 2 103v336q-1 109 -13 158q-34 114 -162 116z" />
    <glyph glyph-name="circumflex" unicode="&#x2c6;" 
d="M854 1204l-14 -16l-328 106l-327 -106l-14 16l279 261h125z" />
    <glyph glyph-name="tilde" unicode="&#x2dc;" 
d="M833 1428h21q-17 -93 -55 -151q-55 -84 -136 -84q-48 0 -133 27q-20 7 -114 39q-88 29 -128 29q-62 0 -97 -88h-20q13 97 51 161q58 95 147 95q42 0 106 -21q12 -3 97 -33q132 -45 186 -45q31 0 51 26q10 13 24 45z" />
    <glyph glyph-name="macron" unicode="&#x2c9;" 
d="M854 1338v-27h-683v27h683z" />
    <glyph glyph-name="breve" unicode="&#x2d8;" 
d="M833 1487h21q-19 -111 -66 -181q-98 -145 -276 -145t-275 145q-47 69 -66 181h20q118 -158 321 -158t321 158z" />
    <glyph glyph-name="dotaccent" unicode="&#x2d9;" 
d="M513 1490q66 0 113 -48q48 -47 48 -115t-48 -115q-48 -48 -115 -48q-68 0 -115 48q-48 48 -48 115q0 68 48 115q48 48 117 48z" />
    <glyph glyph-name="ring" unicode="&#x2da;" 
d="M514 1536q70 0 126 -46q69 -55 69 -142q0 -86 -69 -141q-56 -46 -128 -46t-128 46q-69 55 -69 141q0 88 69 142q57 46 130 46zM510 1509q-40 0 -59 -39t-19 -122q0 -79 18 -122q17 -38 61 -38q45 0 62 38q18 42 18 121q0 83 -18 124q-17 38 -63 38z" />
    <glyph glyph-name="cedilla" unicode="&#xb8;" 
d="M560 0h26q-9 -43 -26 -79q77 -7 122 -46q48 -41 48 -111q0 -65 -44 -114q-53 -58 -131 -58q-40 0 -74 16q-50 23 -50 59q0 26 27 26q22 0 40 -32q24 -42 59 -42q30 0 48 22q15 19 15 49q0 45 -37 78q-37 32 -92 32q-20 0 -47 -4q97 104 116 204z" />
    <glyph glyph-name="hungarumlaut" unicode="&#x2dd;" 
d="M282 1108l67 122q34 66 61 148q48 145 152 145q50 0 86 -40q29 -34 29 -81q0 -41 -31 -76q-32 -36 -112 -77q-91 -47 -140 -86l-89 -72zM623 1108l67 122q34 66 62 148q48 145 151 145q50 0 86 -40q29 -34 29 -81q0 -41 -31 -76q-32 -36 -112 -77q-90 -46 -140 -86
l-89 -72z" />
    <glyph glyph-name="ogonek" unicode="&#x2db;" 
d="M877 0q-54 -9 -91 -31q-89 -52 -89 -141q0 -73 84 -104q42 -15 78 -15q23 0 46 7l7 -12q-73 -75 -172 -75q-72 0 -120 41q-56 48 -56 123q0 51 30 96t82 73q48 25 116 38h85z" />
    <glyph glyph-name="caron" unicode="&#x2c7;" 
d="M171 1447l14 16l327 -106l328 106l14 -16l-279 -261h-125z" />
    <glyph glyph-name="Lslash" unicode="&#x141;" horiz-adv-x="1373" 
d="M205 517v497q0 157 -10 212q-16 78 -80 101q-37 13 -101 18v20h785v-20q-116 -7 -154 -57q-27 -38 -34 -119q-3 -29 -3 -155v-234l324 243v-34l-324 -243v-490q0 -129 20 -173q27 -59 131 -59q214 0 404 217q128 146 204 372h20l-122 -613h-1251v20q116 7 154 58
q28 37 34 118q3 28 3 155v132l-191 -144v34z" />
    <glyph glyph-name="lslash" unicode="&#x142;" horiz-adv-x="676" 
d="M512 897l150 113v-34l-150 -113v-601q0 -104 8 -148q10 -59 56 -79q30 -12 86 -15v-20h-662v20q92 4 123 45q20 29 25 94q2 24 2 103v373l-150 -107v34l150 107v434q-1 109 -13 158q-34 114 -162 116l-2 21q331 69 539 145v-646z" />
    <glyph glyph-name="Scaron" unicode="&#x160;" horiz-adv-x="1266" 
d="M1087 866h-20q-65 193 -171 324q-143 175 -319 175q-96 0 -154 -51q-64 -55 -64 -146q0 -97 71 -153q78 -61 254 -128l191 -73q155 -60 235 -140q101 -102 101 -248q0 -85 -35.5 -167.5t-98.5 -145.5q-142 -140 -368 -140q-171 0 -444 60q-75 17 -103 17q-55 0 -66 -50
h-21l-20 632h20q69 -228 248 -432q100 -115 184 -158q82 -42 183 -42q100 0 161 54q69 60 69 154q0 101 -81 167q-75 61 -208 112l-200 78q-185 72 -282 164q-90 85 -90 216q0 176 137 305q153 143 395 143q82 0 178 -19q23 -4 134 -29q61 -14 93 -14q39 0 47 46h21z
M1009 1800l-307 -287h-137l-307 287l15 18l360 -117l361 117z" />
    <glyph glyph-name="scaron" unicode="&#x161;" horiz-adv-x="1045" 
d="M891 992l20 -337h-20q-48 116 -130 215q-128 154 -253 154q-54 0 -96 -39q-44 -40 -44 -99q0 -122 193 -185l140 -46q144 -47 222 -113q88 -74 88 -198q0 -84 -38 -158t-104 -120q-133 -93 -313 -93q-161 0 -454 108l-20 409h20q77 -179 178 -298q161 -192 314 -192
q73 0 116 47q35 37 35 100q0 68 -40 108q-44 43 -152 82l-101 37q-178 64 -267 136q-97 79 -97 205q0 154 141 251q123 85 299 85q149 0 363 -59zM182 1447l14 16l327 -106l328 106l14 -16l-279 -261h-125z" />
    <glyph glyph-name="Zcaron" unicode="&#x17d;" horiz-adv-x="1366" 
d="M1339 1365l-836 -1341q131 2 243 42q104 39 213.5 126t201.5 205q81 103 128 216h21l-115 -613h-1168l831 1341q-130 -8 -242 -55q-100 -43 -202.5 -122.5t-185.5 -177.5q-64 -77 -111 -174h-20l131 553h1111zM1127 1800l-307 -287h-137l-307 287l15 18l360 -117l361 117
z" />
    <glyph glyph-name="zcaron" unicode="&#x17e;" horiz-adv-x="1160" 
d="M1085 1024l-625 -1000q174 5 378 174q140 121 247 309l20 -6l-154 -542q-45 28 -74 34q-32 7 -108 7h-742l629 1000q-161 -24 -348 -152q-137 -97 -217 -247l-20 5l137 476q18 -33 40 -44q28 -14 95 -14h742zM307 1447l14 16l327 -106l328 106l14 -16l-279 -261h-125z
" />
    <glyph glyph-name="brokenbar" unicode="&#xa6;" 
d="M378 1365h270v-753h-270v753zM378 314h270v-655h-270v655z" />
    <glyph glyph-name="Eth" unicode="&#xd0;" horiz-adv-x="1559" 
d="M205 712h-191v24h191v278q0 157 -10 212q-16 78 -80 101q-37 13 -101 18v20h712q380 0 591 -205q195 -191 195 -484q0 -308 -219 -500q-201 -176 -487 -176h-792v20q116 7 154 58q28 37 34 118q3 28 3 155v361zM608 712v-415q0 -134 8 -175q19 -98 145 -98q193 0 261 183
q60 162 60 480q0 243 -36 376q-50 188 -165 242q-75 36 -217 36h-56v-605h240v-24h-240z" />
    <glyph glyph-name="eth" unicode="&#xf0;" horiz-adv-x="1227" 
d="M587 1309l-228 -178l-17 21l231 180q-64 100 -175 216l12 17q138 -74 254 -162l216 170l17 -22l-211 -165q171 -142 303 -328q191 -271 191 -541q0 -249 -187 -408q-161 -136 -379 -136t-379 136q-187 159 -187 403t187 403q161 136 376 136q39 0 94 -6q-52 156 -118 264
zM611 1024q-69 0 -110 -66q-57 -91 -57 -447q0 -257 33 -390q15 -56 51.5 -88.5t85.5 -32.5q72 0 113 66q57 91 57 439q0 272 -33 398q-32 121 -140 121z" />
    <glyph glyph-name="Yacute" unicode="&#xdd;" horiz-adv-x="1551" 
d="M969 642v-291q0 -157 10 -212q16 -78 80 -101q37 -13 101 -18v-20h-785v20q116 7 154 58q28 37 34 118q3 29 3 155v203l-337 559q-77 127 -138 178q-50 41 -132 54v20h794v-20q-109 -13 -109 -100q0 -70 75 -193l234 -387l69 112q138 224 138 396q0 79 -27 125
q-19 33 -62 47v20h521v-20q-75 -21 -126 -54q-86 -58 -222 -231q-102 -130 -172 -246zM717 1495l87 109q45 58 86 135q64 118 153 118q49 0 82 -34q34 -36 34 -85q0 -55 -46 -91q-38 -30 -123 -57q-97 -29 -154 -59l-99 -56z" />
    <glyph glyph-name="yacute" unicode="&#xfd;" horiz-adv-x="1217" 
d="M774 380q57 113 89 187q58 133 58 252q0 83 -34 129q-28 39 -94 56v20h465v-20q-82 -20 -145 -89q-97 -110 -198 -311l-361 -728q-151 -306 -366 -306q-104 0 -174 58q-66 54 -66 148q0 77 51 127q53 51 130 51q58 0 100 -29q30 -20 69 -70q54 -71 98 -71q68 0 120 81
q20 32 62 116l-408 829q-48 96 -63 116q-37 48 -80 65q-22 8 -68 13v20h671v-20q-90 -7 -90 -88q0 -56 44 -147zM482 1143l87 109q45 59 86 135q64 118 153 118q49 0 82 -34q34 -35 34 -85q0 -55 -46 -91q-38 -30 -123 -56q-96 -29 -154 -60l-99 -56z" />
    <glyph glyph-name="Thorn" unicode="&#xde;" horiz-adv-x="1401" 
d="M608 314q2 -123 12 -175q17 -77 91 -101q41 -13 114 -18v-20h-811v20q116 7 154 58q28 37 34 118q3 29 3 155v663q0 156 -10 212q-16 78 -80 101q-37 13 -101 18v20h785v-20q-111 -11 -156 -67q-27 -38 -32 -113q-1 -17 -3 -73h106q275 0 452 -89q106 -53 163 -153
q38 -67 38 -146q0 -132 -103 -231q-105 -101 -294 -137q-114 -22 -303 -22h-59zM608 338h52q153 0 210 75q67 88 67 297q0 182 -63 274q-58 84 -211 84h-55v-730z" />
    <glyph glyph-name="thorn" unicode="&#xfe;" horiz-adv-x="1260" 
d="M526 917q157 134 307 134q193 0 299 -174q80 -131 80 -313q0 -260 -149 -429q-143 -162 -336 -162q-106 0 -201 73v-187q0 -105 9 -148q13 -60 67 -79q35 -12 101 -15v-20h-730v20q116 7 154 58q28 37 34 118q3 28 3 155v1155q0 109 -13 158q-34 114 -162 116l-2 21
q304 63 539 145v-626zM526 79q43 -43 100 -43q106 0 154 128q50 135 50 329q0 208 -55 338q-25 61 -76 91q-23 13 -52 13q-46 0 -121 -49v-807z" />
    <glyph glyph-name="minus" unicode="&#x2212;" horiz-adv-x="1133" 
d="M20 703h1092v-41h-1092v41z" />
    <glyph glyph-name="multiply" unicode="&#xd7;" horiz-adv-x="1133" 
d="M567 654l-449 -449l-29 29l449 449l-449 449l29 29l449 -449l449 449l29 -29l-449 -449l449 -449l-29 -29z" />
    <glyph glyph-name="onesuperior" unicode="&#xb9;" horiz-adv-x="874" 
d="M578 1393v-634q0 -92 7 -124q9 -43 49 -56q24 -7 70 -10v-23h-520v23q78 4 103 32q17 21 21 67q2 15 2 82v305q0 62 -9 82q-11 31 -66 36q-19 2 -65 2v22q97 32 217 90q96 46 191 106z" />
    <glyph glyph-name="twosuperior" unicode="&#xb2;" horiz-adv-x="874" 
d="M157 1137h-24q77 242 321 242q144 0 229 -81q71 -67 71 -157q0 -121 -127 -202q-55 -36 -184 -80q-119 -41 -160 -64q-57 -33 -93 -70h318q126 0 168 13q53 15 83 65h25q-58 -153 -93 -287h-22q-2 15 -9 21q-10 9 -45 8q-10 0 -47 1q-21 1 -44 1h-426q4 98 39 155
q21 34 74 77q13 10 74 57t103 91q75 78 75 161q0 54 -35 91q-43 45 -119 45q-104 0 -152 -87z" />
    <glyph glyph-name="threesuperior" unicode="&#xb3;" horiz-adv-x="874" 
d="M345 1005v21q81 17 109 43q43 40 43 97q0 40 -28 69q-36 36 -99 36q-50 0 -84 -22q-21 -13 -45 -47l-23 6q26 75 84 117q73 54 170 54q109 0 182 -53q67 -49 67 -127q0 -80 -74 -128q66 -34 101 -89.5t35 -125.5q0 -140 -121 -235q-118 -91 -277 -91q-111 0 -197 41
q-97 46 -97 142q0 48 29 81q36 39 97 39q51 0 83 -31t32 -72q0 -22 -9 -59q-7 -29 -7 -50q0 -27 22 -45q25 -20 65 -20q59 0 92 44q43 57 43 146q0 117 -66 187q-53 57 -127 72z" />
    <glyph glyph-name="onehalf" unicode="&#xbd;" horiz-adv-x="1870" 
d="M578 1393v-634q0 -92 7 -124q9 -43 49 -56q24 -7 70 -10v-23h-520v23q78 4 103 32q17 21 21 67q2 15 2 82v305q0 62 -9 82q-11 31 -66 36q-19 2 -65 2v22q97 32 217 90q96 46 191 106zM1324 1365h55l-832 -1365h-55zM1154 591h-24q76 242 320 242q145 0 230 -81
q71 -67 71 -157q0 -121 -127 -202q-56 -36 -184 -80q-118 -41 -160 -64q-57 -32 -93 -71h318q126 0 168 13q53 15 83 66h25q-56 -149 -93 -287h-23q-1 14 -8 20q-11 9 -45 8q-11 0 -47 1q-22 1 -44 1h-426q4 98 39 155q28 43 147 135q65 49 104 91q75 79 75 161q0 54 -35 91
q-43 45 -119 45q-105 0 -152 -87z" />
    <glyph glyph-name="onequarter" unicode="&#xbc;" horiz-adv-x="1870" 
d="M578 1393v-634q0 -92 7 -124q9 -43 49 -56q24 -7 70 -10v-23h-520v23q78 4 103 32q17 21 21 67q2 15 2 82v305q0 62 -9 82q-11 31 -66 36q-19 2 -65 2v22q97 32 217 90q96 46 191 106zM1324 1365h55l-832 -1365h-55zM1484 832h185v-498h48q52 0 74 9q15 6 39 27l22 -9
q-48 -66 -71 -131h-112v-75q1 -62 16 -85q30 -46 132 -47v-23h-561v23q81 2 110 16q27 15 37 43q9 25 9 73v75h-368q-20 43 -53 89q267 244 493 513zM1412 642q-155 -174 -302 -308h302v308z" />
    <glyph glyph-name="threequarters" unicode="&#xbe;" horiz-adv-x="1870" 
d="M345 1005v21q81 17 109 43q43 40 43 97q0 40 -28 69q-36 36 -99 36q-50 0 -84 -22q-21 -13 -45 -47l-23 6q26 75 84 117q73 54 170 54q109 0 182 -53q67 -49 67 -127q0 -80 -74 -128q66 -34 101 -89.5t35 -125.5q0 -140 -121 -235q-118 -91 -277 -91q-111 0 -197 41
q-97 46 -97 142q0 48 29 81q36 39 97 39q51 0 83 -31t32 -72q0 -22 -9 -59q-7 -29 -7 -50q0 -27 22 -45q25 -20 65 -20q59 0 92 44q43 57 43 146q0 117 -66 187q-53 57 -127 72zM1324 1365h55l-833 -1365h-54zM1484 832h185v-498h48q52 0 74 9q15 6 39 27l22 -9
q-48 -66 -71 -131h-112v-75q1 -62 16 -85q30 -46 132 -47v-23h-561v23q81 2 110 16q27 15 37 43q9 25 9 73v75h-368q-20 43 -53 89q266 243 493 513zM1412 642q-156 -174 -302 -308h302v308z" />
    <glyph glyph-name="franc" unicode="&#x20a3;" horiz-adv-x="2115" 
d="M1243 921q168 43 407 130v-314q39 120 96 195q90 119 210 119q79 0 133 -52q53 -51 53 -126q0 -67 -39 -115q-46 -56 -119 -56q-55 0 -97 34q-16 13 -59 71q-31 41 -63 41q-39 0 -63 -43q-26 -46 -31 -94q-7 -68 -7 -192v-257q0 -105 8 -148q12 -59 62 -79q32 -12 94 -15
v-20h-690v20q101 4 134 45q22 29 28 94q2 24 2 103v336q0 109 -13 158q-34 114 -161 116l-3 21l68 16l19 5q-60 153 -174 258q-185 169 -399 169h-59v-653q313 16 367 299h20v-624h-20q-31 127 -127 212q-111 92 -240 93v-319q1 -157 17 -208q10 -34 38.5 -63t63.5 -41
q45 -15 129 -17v-20h-842v20q116 7 154 58q28 37 34 118q3 28 3 155v663q0 157 -10 212q-16 78 -80 101q-37 13 -101 18v20h1182z" />
    <glyph glyph-name="Gbreve" unicode="&#x11e;" horiz-adv-x="1486" 
d="M1137 1828h23q-20 -111 -72 -180q-108 -145 -304 -145q-195 0 -303 145q-51 69 -72 180h23q129 -157 352 -157t353 157zM1250 1377l23 -534h-20q-60 211 -156 345q-125 177 -278 177q-67 0 -125.5 -39t-95.5 -109q-120 -230 -120 -615q0 -316 84 -477q65 -125 217 -125
q116 0 151 78q29 66 29 198v146q-1 94 -20 127q-24 46 -74 65q-22 8 -71 16v20h706v-20q-49 -4 -71 -14q-48 -24 -68 -89q-13 -37 -13 -163v-364h-20q-20 65 -69 65q-25 0 -98 -23q-220 -69 -413 -69q-291 0 -499 216q-201 210 -201 486q0 214 125 399q117 175 314 258
q143 61 306 61q115 0 319 -43q45 -10 73 -10q37 0 45 37h20z" />
    <glyph glyph-name="gbreve" unicode="&#x11f;" horiz-adv-x="1143" 
d="M892 1761h21q-19 -111 -66 -181q-98 -145 -276 -145t-275 145q-47 69 -66 181h20q118 -158 321 -158t321 158zM308 512q-45 -36 -45 -79q0 -67 63 -90q54 -20 180 -20q47 0 136 5q82 5 138 5q160 0 260 -76q116 -87 116 -221q0 -69 -39 -140t-103 -120q-92 -69 -223 -107
t-278 -38q-171 0 -306 43q-69 22 -108.5 64.5t-39.5 94.5q0 117 212 191q-90 20 -141 59q-82 61 -82 150q0 160 237 288q-77 25 -117 61q-79 70 -79 169q0 90 84 167q130 119 382 133q-1 26 -1 39q0 128 48 207q71 116 205 116q77 0 130 -48q54 -49 54 -121q0 -66 -38 -110
q-42 -49 -107 -49q-61 0 -121 63q-51 53 -79 53q-69 0 -69 -130v-20h19q133 -1 249 -57q177 -85 177 -220q0 -54 -31.5 -108.5t-83.5 -91.5q-145 -101 -355 -101q-120 0 -244 39zM548 1024q-124 0 -124 -242q0 -145 34 -217q30 -65 104 -65t101 63q25 59 25 182
q0 279 -140 279zM319 17q-61 -41 -61 -115q0 -119 126 -182q104 -52 242 -52q141 0 227 58q81 53 81 137q0 73 -62 112q-61 37 -162 37q-42 0 -118 -5q-71 -4 -112 -4q-69 0 -161 14z" />
    <glyph glyph-name="Idot" unicode="&#x130;" horiz-adv-x="812" 
d="M408 1846q72 0 125 -52q52 -53 52 -127q0 -75 -52 -127q-53 -53 -127 -53q-75 0 -127 53q-53 52 -53 126q0 76 53 128t129 52zM205 351v663q0 156 -10 212q-16 78 -80 101q-37 13 -101 18v20h785v-20q-116 -7 -154 -57q-27 -38 -34 -119q-3 -29 -3 -155v-663
q0 -156 10 -212q16 -78 80 -101q37 -13 101 -18v-20h-785v20q116 7 154 58q28 37 34 118q3 29 3 155z" />
    <glyph glyph-name="Scedilla" unicode="&#x15e;" horiz-adv-x="1266" 
d="M702 -27q-9 -33 -23 -60q85 -8 134 -50q53 -45 53 -123q0 -71 -49 -125q-58 -64 -144 -64q-44 0 -81 17q-55 26 -55 67q0 28 29 28q25 0 45 -36q26 -46 64 -46q34 0 54 25q16 20 16 53q0 50 -41 86q-40 35 -101 35q-20 0 -52 -4q45 48 77.5 101t44.5 96q-153 4 -408 60
q-75 17 -103 17q-55 0 -66 -50h-21l-20 632h20q69 -228 248 -432q100 -115 184 -158q82 -42 183 -42q100 0 161 54q69 60 69 154q0 101 -81 167q-75 61 -208 112l-200 78q-185 72 -282 164q-90 85 -90 216q0 176 137 305q153 143 395 143q82 0 178 -19q23 -4 134 -29
q61 -14 93 -14q39 0 47 46h21l23 -511h-20q-65 193 -171 324q-143 175 -319 175q-96 0 -154 -51q-64 -55 -64 -146q0 -97 71 -153q78 -61 254 -128l191 -73q155 -60 235 -140q101 -102 101 -249q0 -137 -86 -256q-140 -194 -423 -196z" />
    <glyph glyph-name="scedilla" unicode="&#x15f;" horiz-adv-x="1045" 
d="M591 -26q-7 -27 -20 -53q77 -7 122 -46q48 -41 48 -111q0 -65 -44 -114q-53 -58 -131 -58q-40 0 -74 16q-50 23 -50 59q0 26 27 26q22 0 40 -32q24 -42 59 -42q30 0 48 22q15 19 15 49q0 45 -37 78q-37 32 -93 32q-19 0 -46 -4q83 88 110 177q-138 -9 -463 108l-20 409
h20q77 -179 178 -298q161 -192 314 -192q73 0 116 47q35 37 35 100q0 68 -40 108q-44 43 -152 82l-101 37q-178 64 -267 136q-97 79 -97 205q0 154 141 251q123 85 299 85q149 0 363 -59l20 -337h-20q-48 116 -130 215q-128 154 -253 154q-54 0 -96 -39q-44 -40 -44 -99
q0 -122 193 -185l140 -46q144 -47 222 -113q88 -75 88 -198q0 -135 -90 -234q-80 -86 -234 -122q-44 -10 -96 -14z" />
    <glyph glyph-name="Cacute" unicode="&#x106;" horiz-adv-x="1369" 
d="M654 1495l87 109q45 58 86 135q64 118 153 118q49 0 82 -34q34 -36 34 -85q0 -55 -46 -91q-38 -30 -123 -57q-97 -29 -154 -59l-99 -56zM1244 1376l32 -545h-21q-64 207 -189 362q-139 172 -289 172q-68 0 -124.5 -40t-88.5 -111q-86 -191 -86 -539q0 -188 28.5 -319.5
t89.5 -224.5q49 -74 135 -111q45 -20 96 -20q152 0 296 216q100 150 151 349h20l-18 -585h-21q-3 42 -44 42q-20 0 -97 -14l-49 -9q-142 -27 -251 -27q-147 0 -287.5 51t-243.5 142q-109 96 -170 227q-65 140 -65 295q0 227 133 407q121 164 315 242q139 56 291 56
q118 0 276 -37q78 -19 110 -19q38 0 50 40h21z" />
    <glyph glyph-name="cacute" unicode="&#x107;" horiz-adv-x="1111" 
d="M470 1143l87 109q45 59 86 135q64 118 153 118q49 0 82 -34q34 -35 34 -85q0 -55 -46 -91q-38 -30 -123 -56q-96 -29 -154 -60l-99 -56zM1059 375l24 -13q-172 -389 -514 -389q-223 0 -366 138q-73 71 -115 178q-40 102 -40 207q0 116 47.5 223t133.5 185
q162 147 394 147q192 0 315 -108q114 -101 114 -231q0 -70 -42 -122q-47 -59 -126 -59q-82 0 -131 59q-41 49 -41 119q0 38 20 104q17 56 17 89q0 51 -33 85q-37 37 -92 37q-95 0 -155 -108q-66 -119 -66 -275q0 -180 89 -289q96 -116 260 -116q173 0 307 139z" />
    <glyph glyph-name="Ccaron" unicode="&#x10c;" horiz-adv-x="1369" 
d="M1156 1800l-307 -287h-137l-307 287l15 18l360 -117l361 117zM1244 1376l32 -545h-21q-64 207 -189 362q-139 172 -289 172q-68 0 -124.5 -40t-88.5 -111q-86 -191 -86 -539q0 -188 28.5 -319.5t89.5 -224.5q49 -74 135 -111q45 -20 96 -20q152 0 296 216
q100 150 151 349h20l-18 -585h-21q-3 42 -44 42q-20 0 -97 -14l-49 -9q-142 -27 -251 -27q-147 0 -287.5 51t-243.5 142q-109 96 -170 227q-65 140 -65 295q0 227 133 407q121 164 315 242q139 56 291 56q118 0 276 -37q78 -19 110 -19q38 0 50 40h21z" />
    <glyph glyph-name="ccaron" unicode="&#x10d;" horiz-adv-x="1111" 
d="M255 1447l14 16l327 -106l328 106l14 -16l-279 -261h-125zM1059 375l24 -13q-172 -389 -514 -389q-223 0 -366 138q-73 71 -115 178q-40 102 -40 207q0 116 47.5 223t133.5 185q162 147 394 147q192 0 315 -108q114 -101 114 -231q0 -70 -42 -122q-47 -59 -126 -59
q-82 0 -131 59q-41 49 -41 119q0 38 20 104q17 56 17 89q0 51 -33 85q-37 37 -92 37q-95 0 -155 -108q-66 -119 -66 -275q0 -180 89 -289q96 -116 260 -116q173 0 307 139z" />
    <glyph glyph-name="dmacron" unicode="&#x111;" horiz-adv-x="1258" 
d="M731 1172h-293v24h291q-12 179 -171 181l-3 20q312 66 539 145v-346h151v-24h-151v-774q1 -148 23 -188q20 -38 67 -51q18 -6 61 -9v-20q-244 -67 -513 -157v164q-145 -164 -312 -164q-128 0 -226 90q-78 73 -117 191q-29 89 -29 194q0 267 180 444q161 159 377 159
q58 0 127 -27v79q0 21 -1 69zM732 171v738q0 61 -34 90q-29 25 -69 25q-41 0 -77 -27t-57 -74q-65 -143 -65 -417q0 -195 35 -293q40 -111 142 -111q51 0 89 33q14 11 36 36z" />
    <glyph glyph-name="nbspace" unicode="&#xa0;" horiz-adv-x="512" 
 />
    <glyph glyph-name="sfthyphen" unicode="&#xad;" horiz-adv-x="537" 
d="M537 597v-157h-537v157h537z" />
    <glyph glyph-name="overscore" unicode="&#xaf;" 
d="M-3 1751h1031v-200h-1031v200z" />
    <glyph glyph-name="middot" unicode="&#xb7;" horiz-adv-x="478" 
d="M240 717q80 0 137 -58q58 -57 58 -139t-58 -139q-57 -58 -139 -58t-139 58q-58 57 -58 139q0 83 58 139q59 58 141 58z" />
    <glyph glyph-name="glyph262" 
d="M307 1490q66 0 113 -48q48 -47 48 -115t-48 -115q-48 -48 -115 -48q-68 0 -115 48q-48 48 -48 115q0 68 48 115q48 48 117 48zM720 1490q66 0 113 -48q48 -47 48 -115t-48 -115q-48 -48 -115 -48t-115 48q-48 47 -48 115q0 69 48 115q49 48 117 48z" />
    <glyph glyph-name="glyph263" 
d="M888 1800l-307 -287h-137l-307 287l15 18l360 -117l361 117z" />
    <glyph glyph-name="glyph264" 
d="M865 1828h23q-20 -111 -72 -180q-108 -145 -304 -145q-195 0 -303 145q-51 69 -72 180h23q129 -157 352 -157t353 157z" />
    <glyph glyph-name="glyph265" 
d="M888 1531l-15 -18l-361 117l-360 -117l-15 18l307 287h137z" />
    <glyph glyph-name="glyph266" 
d="M639 1495l-20 -20l-100 56q-57 30 -153 59q-85 27 -123 57q-46 36 -46 91q0 49 34 85q33 34 82 34q59 0 106 -52q28 -31 75 -119q20 -35 58 -82z" />
    <glyph glyph-name="glyph267" 
d="M385 1495l87 109q45 58 86 135q64 118 153 118q49 0 82 -34q34 -36 34 -85q0 -55 -46 -91q-38 -30 -123 -57q-97 -29 -154 -59l-99 -56z" />
    <glyph glyph-name="glyph268" 
d="M272 1846q72 0 125 -52q52 -53 52 -127q0 -75 -52 -127q-53 -53 -127 -53q-75 0 -127 53q-53 52 -53 126q0 76 53 128t129 52zM756 1846q72 0 125 -52q52 -53 52 -127q0 -75 -52 -127q-53 -53 -127 -53q-75 0 -127 53q-53 52 -53 126q0 76 53 128t129 52z" />
    <glyph glyph-name="glyph269" 
d="M865 1770h23q-18 -93 -60 -151q-61 -85 -150 -85q-59 0 -203 44q-163 51 -209 51q-68 0 -106 -88h-23q14 98 56 162q63 95 161 95q47 0 118 -21q12 -3 106 -33q146 -45 204 -45q35 0 57 26q11 13 26 45z" />
    <glyph glyph-name="glyph270" 
d="M285 1846q72 0 125 -52q52 -53 52 -127q0 -75 -52 -127q-53 -53 -127 -53q-75 0 -127 53q-53 52 -53 126q0 76 53 128t129 52zM742 1846q72 0 124 -52q53 -53 53 -127q0 -75 -53 -127q-52 -53 -126 -53q-75 0 -127 53q-53 53 -53 126q0 76 53 128t129 52z" />
    <glyph glyph-name="glyph271" 
d="M514 1915q76 0 139 -50q75 -61 75 -157q0 -95 -75 -156q-62 -50 -141 -50q-80 0 -141 50q-76 62 -76 156q0 97 76 157q63 50 143 50zM510 1885q-47 0 -66 -42q-20 -46 -20 -135q0 -88 20 -134q18 -42 68 -42q48 0 67 42q20 46 20 133q0 92 -20 136q-19 42 -69 42z" />
    <glyph glyph-name="glyph272" 
d="M514 1846q72 0 125 -52q52 -53 52 -127q0 -75 -52 -127q-53 -53 -127 -53q-75 0 -127 53q-53 52 -53 126q0 76 53 128t129 52z" />
    <glyph glyph-name="glyph273" horiz-adv-x="512" 
 />
    </font>
</defs>
</svg>
